<svg xmlns="http://www.w3.org/2000/svg" xmlns:xlink="http://www.w3.org/1999/xlink" viewBox="0 0 568.77 233.12"><defs><style>.cls-1{fill:url(#linear-gradient);}.cls-2{fill:url(#linear-gradient-2);}.cls-3{fill:url(#linear-gradient-3);}.cls-4{fill:url(#linear-gradient-4);}.cls-5{fill:url(#linear-gradient-5);}.cls-6{fill:url(#linear-gradient-6);}.cls-7{fill:url(#linear-gradient-7);}.cls-8{fill:url(#linear-gradient-8);}.cls-9{fill:url(#linear-gradient-9);}.cls-10{fill:url(#linear-gradient-10);}.cls-11{fill:url(#linear-gradient-11);}.cls-12{fill:url(#linear-gradient-12);}.cls-13{fill:url(#linear-gradient-13);}.cls-14{fill:url(#linear-gradient-14);}.cls-15{fill:url(#linear-gradient-15);}.cls-16{fill:url(#linear-gradient-16);}.cls-17{fill:url(#linear-gradient-17);}.cls-18{fill:url(#linear-gradient-18);}.cls-19{fill:url(#linear-gradient-19);}.cls-20{fill:url(#linear-gradient-20);}.cls-21{fill:url(#linear-gradient-21);}.cls-22{fill:url(#linear-gradient-22);}.cls-23{fill:url(#linear-gradient-23);}.cls-24{fill:url(#linear-gradient-24);}.cls-25{fill:url(#linear-gradient-25);}.cls-26{fill:url(#linear-gradient-26);}.cls-27{fill:url(#linear-gradient-27);}.cls-28{fill:url(#linear-gradient-28);}.cls-29{fill:url(#linear-gradient-29);}.cls-30{fill:url(#linear-gradient-30);}.cls-31{fill:url(#linear-gradient-31);}.cls-32{fill:url(#linear-gradient-32);}</style><linearGradient id="linear-gradient" x1="159.34" y1="150.48" x2="184.9" y2="150.48" gradientUnits="userSpaceOnUse"><stop offset="0.34" stop-color="#eacba2"/><stop offset="1" stop-color="#f5e5bf"/></linearGradient><linearGradient id="linear-gradient-2" x1="142.33" y1="150.27" x2="170.24" y2="150.27" xlink:href="#linear-gradient"/><linearGradient id="linear-gradient-3" x1="174" y1="151.26" x2="201.91" y2="151.26" xlink:href="#linear-gradient"/><linearGradient id="linear-gradient-4" x1="205.33" y1="84.55" x2="225.08" y2="84.55" xlink:href="#linear-gradient"/><linearGradient id="linear-gradient-5" x1="207.63" y1="146.82" x2="231.45" y2="146.82" xlink:href="#linear-gradient"/><linearGradient id="linear-gradient-6" x1="240.95" y1="150.27" x2="292.38" y2="150.27" xlink:href="#linear-gradient"/><linearGradient id="linear-gradient-7" x1="299.07" y1="169.5" x2="322.84" y2="169.5" xlink:href="#linear-gradient"/><linearGradient id="linear-gradient-8" x1="298.23" y1="139.61" x2="342.06" y2="139.61" xlink:href="#linear-gradient"/><linearGradient id="linear-gradient-9" x1="346.9" y1="148.48" x2="372.6" y2="148.48" xlink:href="#linear-gradient"/><linearGradient id="linear-gradient-10" x1="342.08" y1="88.81" x2="374.78" y2="88.81" xlink:href="#linear-gradient"/><linearGradient id="linear-gradient-11" x1="379.59" y1="127.26" x2="424.82" y2="127.26" xlink:href="#linear-gradient"/><linearGradient id="linear-gradient-12" x1="377.34" y1="158.38" x2="428.15" y2="158.38" xlink:href="#linear-gradient"/><linearGradient id="linear-gradient-13" x1="183.17" y1="196.19" x2="203.73" y2="196.19" xlink:href="#linear-gradient"/><linearGradient id="linear-gradient-14" x1="413.69" y1="170.97" x2="414.32" y2="170.97" xlink:href="#linear-gradient"/><linearGradient id="linear-gradient-15" x1="203.73" y1="198.57" x2="420.4" y2="198.57" xlink:href="#linear-gradient"/><linearGradient id="linear-gradient-16" x1="66.34" y1="201.21" x2="74.99" y2="201.21" xlink:href="#linear-gradient"/><linearGradient id="linear-gradient-17" x1="69.49" y1="193.18" x2="69.57" y2="193.18" xlink:href="#linear-gradient"/><linearGradient id="linear-gradient-18" x1="0" y1="116.56" x2="189.44" y2="116.56" xlink:href="#linear-gradient"/><linearGradient id="linear-gradient-19" x1="72.17" y1="59.47" x2="72.66" y2="59.47" xlink:href="#linear-gradient"/><linearGradient id="linear-gradient-20" x1="-267.44" y1="419.25" x2="-244.52" y2="419.25" gradientTransform="translate(156.66 -293.06) rotate(-29.3)" xlink:href="#linear-gradient"/><linearGradient id="linear-gradient-21" x1="-285.25" y1="362.57" x2="-280.38" y2="362.57" gradientTransform="translate(156.66 -293.06) rotate(-29.3)" xlink:href="#linear-gradient"/><linearGradient id="linear-gradient-22" x1="-224.73" y1="365.22" x2="-218.55" y2="365.22" gradientTransform="translate(156.66 -293.06) rotate(-29.3)" xlink:href="#linear-gradient"/><linearGradient id="linear-gradient-23" x1="-314.56" y1="252.64" x2="-305.68" y2="252.64" gradientTransform="translate(156.66 -293.06) rotate(-29.3)" xlink:href="#linear-gradient"/><linearGradient id="linear-gradient-24" x1="-330.75" y1="382.22" x2="-164.49" y2="382.22" gradientTransform="translate(156.66 -293.06) rotate(-29.3)" xlink:href="#linear-gradient"/><linearGradient id="linear-gradient-25" x1="-330.79" y1="343.39" x2="-164.49" y2="343.39" gradientTransform="translate(156.66 -293.06) rotate(-29.3)" xlink:href="#linear-gradient"/><linearGradient id="linear-gradient-26" x1="-328.23" y1="314.49" x2="-321.29" y2="314.49" gradientTransform="translate(156.66 -293.06) rotate(-29.3)" xlink:href="#linear-gradient"/><linearGradient id="linear-gradient-27" x1="11.36" y1="176.28" x2="64.76" y2="176.28" xlink:href="#linear-gradient"/><linearGradient id="linear-gradient-28" x1="-361.27" y1="333.53" x2="-357.22" y2="333.53" gradientTransform="translate(156.66 -293.06) rotate(-29.3)" xlink:href="#linear-gradient"/><linearGradient id="linear-gradient-29" x1="72.26" y1="59.5" x2="72.56" y2="59.33" xlink:href="#linear-gradient"/><linearGradient id="linear-gradient-30" x1="414.51" y1="170.07" x2="414.53" y2="170.07" xlink:href="#linear-gradient"/><linearGradient id="linear-gradient-31" x1="414.31" y1="170.4" x2="414.65" y2="170.4" xlink:href="#linear-gradient"/><linearGradient id="linear-gradient-32" x1="413.25" y1="135.77" x2="568.77" y2="135.77" xlink:href="#linear-gradient"/></defs><g id="Layer_2" data-name="Layer 2"><g id="Layer_1-2" data-name="Layer 1"><path class="cls-1" d="M181.12,151l3.72-.42a.06.06,0,1,0,0-.12l-3.72-.42a9.1,9.1,0,0,1-8-8.09c-.35-3.37-.73-7-.91-8.7a.06.06,0,0,0-.12,0l-.91,8.7a9.1,9.1,0,0,1-8,8.09l-3.72.42a.06.06,0,1,0,0,.12l3.72.42a9.09,9.09,0,0,1,8,8.08l.91,8.7a.06.06,0,0,0,.12,0c.18-1.69.56-5.32.91-8.7A9.09,9.09,0,0,1,181.12,151Z"/><path class="cls-2" d="M169.67,180.23c-9.75-1.78-17.32-14.52-17.32-30s7.57-28.19,17.32-30a.7.7,0,0,0,.57-.69.71.71,0,0,0-.76-.7c-15.21,1.37-27.15,14.89-27.15,31.36s11.94,30,27.15,31.35a.7.7,0,0,0,.76-.7A.71.71,0,0,0,169.67,180.23Z"/><path class="cls-3" d="M182.87,120.9c-.2,1.1-.48,2.19-.79,3.27,5.86,5.22,9.81,15,9.81,26.1,0,15.44-7.57,28.18-17.32,30a.71.71,0,0,0-.57.69.7.7,0,0,0,.76.7c15.21-1.37,27.15-14.88,27.15-31.35C201.91,136.87,194,125.44,182.87,120.9Z"/><path class="cls-4" d="M214,75.13V115.6a19,19,0,0,1,3.7-4,19.59,19.59,0,0,1,7.39-3.63V53.49l-19.75,9h1a6.89,6.89,0,0,1,5.28,2.69C213.21,67,214,70.28,214,75.13Z"/><path class="cls-5" d="M230.1,180.84c-1.26-.87-2.43-2.56-3.46-5.11s-1.56-6.35-1.56-11.42V112a15.6,15.6,0,0,0-5,2.65c-4.78,3.83-5.89,9.44-6.13,12.4v37.24c0,5-.51,8.73-1.55,11.34s-2.18,4.32-3.47,5.19a7.32,7.32,0,0,1-1.34.78h23.82A7.32,7.32,0,0,1,230.1,180.84Z"/><path class="cls-6" d="M292,180.9a9.64,9.64,0,0,1-6.62-9.17l.4-37.83a16.11,16.11,0,0,0-9.62-12.64,28.65,28.65,0,0,0-11.43-2.35c-3,0-17.43.33-20.1,10.59a11.8,11.8,0,0,0,.29,6.86c1.31,3.78,5.26,7.56,15.36,5.37a.19.19,0,0,0,0-.35c-4.47-2.11-7.08-13.72-.12-18.19a9.45,9.45,0,0,1,7.45-1.09c7.76,2,8.46,7.5,8.51,9v29.75c-.38,5.52-3.3,10.87-8.41,13.33-4.36,2.09-10.05,1.35-12.5-3.17-2.6-4.79-.89-11.05,3-14.61s9.61-5.25,12.82-9.75c.12-.18.25-.36.36-.55a7.49,7.49,0,0,0-.13-8.35,8.7,8.7,0,0,1-1.23,4.58c-2.7,4.33-9.07,5.21-13.47,6.76-7.21,2.55-14.4,7.62-15.5,15.74-1.42,10.58,9.43,18.15,19.24,16.64a21.87,21.87,0,0,0,15.82-11c0,.61.2,10.27,9.51,11.15a21.31,21.31,0,0,0,6.56-.54C292.57,180.94,292.32,181,292,180.9Z"/><path class="cls-7" d="M318.63,177.75q-2.19-3.54-2.19-13v-7.39a20.82,20.82,0,0,1-10.79,6.89v.5q0,9.6-2.28,13.06c-1.51,2.3-2.95,3.57-4.3,3.79h23.77Q320.82,181.29,318.63,177.75Z"/><path class="cls-8" d="M336.5,118.91q-5.91,0-11.72,5a31.69,31.69,0,0,0-8.34,10.37V118.91L298.23,127a6.71,6.71,0,0,1,5.14,2.62q2.28,2.61,2.28,9.69v21a16.22,16.22,0,0,0,8.69-6.48,15.34,15.34,0,0,0,2.28-6.44,25.9,25.9,0,0,1,3.86-12,12.67,12.67,0,0,1,11.13-6.16q6.74,0,10.45,4.56V119.92A12,12,0,0,0,336.5,118.91Z"/><path class="cls-9" d="M364.43,171.82l0-56.16a.32.32,0,0,0-.53-.24,23.77,23.77,0,0,1-10.81,5.65.37.37,0,0,0-.23.55,13.53,13.53,0,0,1,1.57,3.69,18.57,18.57,0,0,1,.65,5l0,41.48c0,2,.33,4.83-1.47,6.59-2.35,2.3-6.95,3.21-6.7,3.21h25.68c.26,0-4.18-.56-6.53-2.85C364.26,177,364.43,173.77,364.43,171.82Z"/><path class="cls-10" d="M369.94,89.42l4.77-.53a.08.08,0,0,0,0-.16l-4.76-.53a11.64,11.64,0,0,1-10.27-10.35c-.45-4.32-.94-9-1.17-11.13a.08.08,0,0,0-.15,0l-1.17,11.13A11.64,11.64,0,0,1,346.91,88.2l-4.76.53a.08.08,0,0,0,0,.16l4.76.53a11.65,11.65,0,0,1,10.27,10.35l1.17,11.13a.08.08,0,0,0,.15,0c.23-2.16.72-6.81,1.17-11.13A11.65,11.65,0,0,1,369.94,89.42Z"/><path class="cls-11" d="M385.27,141.17a60.09,60.09,0,0,0,9.46,6.24A25.43,25.43,0,0,1,393,131.49a9.88,9.88,0,0,1-2.79-7.15,9.37,9.37,0,0,1,3.43-7,12.4,12.4,0,0,1,8.71-3.13,22,22,0,0,1,11.55,3.32,18.37,18.37,0,0,1,7.83,10l3.14-14.69a26.89,26.89,0,0,0-8.23-3.91,42.18,42.18,0,0,0-12.92-1.76q-10.77,0-17.42,6.26a20,20,0,0,0-6.66,15.08Q379.59,136.48,385.27,141.17Z"/><path class="cls-12" d="M428.15,160.75A19.27,19.27,0,0,1,425,171.33a21.29,21.29,0,0,1-6,6.1,26.34,26.34,0,0,1-3.08,1.83q-1.08.54-2.22,1a31.36,31.36,0,0,1-11.59,2,40.72,40.72,0,0,1-12.13-2,37.57,37.57,0,0,1-6-2.4c0-.12,0-.24,0-.35-5.47-3.37-8.75-11.1-5.07-16.34,4.08-5.81,13-4.71,19.56-2,.52.2,1,.43,1.53.66,1.38.61,2.74,1.28,4.06,2a45,45,0,0,1,3.87,2.37,36.41,36.41,0,0,1,3.56,2.76c.51.44,1,.91,1.47,1.39.3.3.58.6.87.9l.43.46.22.24,0,0,0,0,0,0,0,.07v0a.14.14,0,0,1,0,.06l-.16.24-.06.08,0,.06-.62.66-.41.42a6,6,0,0,1-1.08.69.39.39,0,0,1-.14.08l-.12.06-.05,0c-.38.21-.68.35-.68.35l-.13-.22-.12-.17,0-.08a24.39,24.39,0,0,0-1.43-2.06,17.25,17.25,0,0,0-2.8-2.8,15.43,15.43,0,0,0-3.35-2,13.83,13.83,0,0,0-3.79-1.08c-3.68-.49-12.27.69-11.64,5.48a17.7,17.7,0,0,0,1.76,1.26,25.34,25.34,0,0,0,13.81,4,15.48,15.48,0,0,0,7.93-1.93,11.93,11.93,0,0,0,1.28-.86l0,0c.22-.18.44-.34.64-.52a13.72,13.72,0,0,0,1.48-1.47,8.69,8.69,0,0,0,2.34-5.77,8.8,8.8,0,0,0-3.91-7.24,53.69,53.69,0,0,0-7.16-4.32,17.71,17.71,0,0,1-5.89-5.09,19.29,19.29,0,0,1-3.28-13.55,83.48,83.48,0,0,0,10.25,5.14q10.19,4.3,15.57,8.71T428.15,160.75Z"/><path class="cls-13" d="M183.17,199.79a76,76,0,0,1,20.56-7.2A186.06,186.06,0,0,0,183.17,199.79Z"/><path class="cls-14" d="M414.31,170.64a2.31,2.31,0,0,1-.31.39,2,2,0,0,1-.31.27Z"/><path class="cls-15" d="M419.23,178.1c-.56.31-1.14.59-1.72.88-1.21.58-2.35,1.3-3.58,1.83l-.18.06a18.29,18.29,0,0,1-.21,5.43c-1.88,9.5-10.12,16.81-19.3,19.88s-19.17,2.54-28.73,1.09c-25.49-3.85-49.66-13.86-75-18.68a188.81,188.81,0,0,0-86.81,4c14.65-3,30.28-2.28,45.14,0,22.1,3.41,43.3,11,64.8,17.19s43.87,11,66.11,8.64c10.73-1.14,21.67-4.15,29.88-11.17s13-18.71,9.64-29C419.28,178.23,419.25,178.17,419.23,178.1Z"/><path class="cls-16" d="M69.76,205a17.29,17.29,0,0,1-.25,1.88q0-5.82,0-11.34c0,1.91,0,3.92.07,6A15.27,15.27,0,0,1,69.76,205Z"/><path class="cls-17" d="M69.53,191.27v3.81c0-1.31,0-2.58,0-3.81Z"/><path class="cls-18" d="M189.31,98.6c-.05-1-.08-2-.14-2.95q-.24-3.33-.67-6.62a105.24,105.24,0,0,0-2.39-12.33,101.77,101.77,0,0,0-3.86-11.93,94.93,94.93,0,0,0-5.38-11.35c-.55-1-1.13-2-1.71-2.94a98.43,98.43,0,0,0-26.68-30.6C126.83,3.19,97.62-4.11,70.87,2.31A95.37,95.37,0,0,0,13.62,40.66,88.92,88.92,0,0,0,3.54,58.9C2.37,63,0,66.89,0,71.19l.85-1.6c1.62-1.23,2.65-3.07,4.36-4.21,2.56-3.34,6.29-5.5,9.58-8a20.73,20.73,0,0,1,11-3.92l2,1.17a51,51,0,0,1,5.88,8c1.22.51,2.43,1.05,3.68,1.51l-1,.1c-.16,2.07-1.14,3.93-1.84,5.85-2.73,8.18-3.5,16.86-3.77,25.43,0,2.88.9,5.86-.46,8.58-1.91-2.72-1.74-6.22-3.57-8.94.17-.83.36-1.66.55-2.48a18.8,18.8,0,0,1-.81-3.86l.94-1.88-1.19-2.29c1.31-2.33-.09-4.61-1.4-6.57.59,2.27,1.54,4.55.76,6.89l1.32,2.39c-2,1.24-.29,3.73-.41,5.53-.46,4.35.34,8.69,1,13,.8,1.47,1.64,2.93,2.45,4.39a8.73,8.73,0,0,1-4-.65,18.09,18.09,0,0,0-1.67-1.73c1.31,4.36,6,5.92,8.28,9.58,3,3.82,3.9,8.71,5.85,13.07l.76-1c1.29,2.24,4.35,2.72,5.54,5.08,1.48,2.54,3.31,5.23,3.08,8.32a13.52,13.52,0,0,0,8.24.62c-.35-2.7-.49-5.73,1.08-8.1-3.83-1.68-5.74-5.43-7.4-9-.08-3.51-1-7.15,0-10.65.81-2.76,1.16-5.74,3-8.09-3.1,2.06-4.7,5.5-5.72,9-.9-2-1.69-4.22-.94-6.44.35-5.82,2.66-11.64,7.13-15.54a30.73,30.73,0,0,0-7.3,6c-.92,1.54-1.5,3.34-3.06,4.4-.71-2.76.57-5.58,1.45-8.17l-.32-.18a70.56,70.56,0,0,1,4.75-6,51.92,51.92,0,0,1,6.82-3.75c2.64,0,4.73-2,7.36-2.17,1.61,4.43,2.46,9.14,4.57,13.38a22,22,0,0,0,0,5.84,52.41,52.41,0,0,1-4.25,7.15c1.8,3.47,3.19,7.28,6.27,9.85a60.85,60.85,0,0,1,.43,8.54c.34,8.51.08,14.63-.09,20.27l0,0c-.06,11.78-.11,25.69-.14,41.54v3.81a3.53,3.53,0,0,0,0,.46c0,1.91,0,3.92.07,6a15.27,15.27,0,0,1,.16,3.45,17.29,17.29,0,0,1-.25,1.88h0c-.09.51-.2,1-.32,1.52-7.45,5.15-11.35,14.12-12.9,22.83.26.48.77,1.42,1,1.88-.26-.46,1.27-2.88,1.53-3.34a24.54,24.54,0,0,1,2-2.85,66.27,66.27,0,0,1,14.8-14.16c3.62-2.51,7.86-4.09,11.62-6.4,6.52-2.72,13.14-5.21,19.79-7.63a31.09,31.09,0,0,0-5.57-.67c-4.09-.1-8.82-.51-12.9.33l-.38.09c-.36.08-.72.16-1.06.26a1.8,1.8,0,0,1-.32.06,59.24,59.24,0,0,0-10.91,4.74c-.17-1.62-.28-3.24-.34-4.86v0c.08-13.08.17-27,.16-47.31v-.29c0-1.52,0-2.77,0-3.57a33.07,33.07,0,0,1-4.89-.05,13.37,13.37,0,0,0,5-1c-.44-12.37.14-24.75-.07-37.11-.11-10,.21-19.94,0-29.94.16-.06.38-.18.61-.29L75.7,62l.27-3.6a61.61,61.61,0,0,1,6.31-.85s-4.13-2.15-11.64,0-7.43,9.88-7.43,9.88,3.91-4.22,6.36-6.67a2.32,2.32,0,0,1,.28-.24c.09,4.29-.09,8.6.1,12.9-1.92.25-3.85.32-5.78.52a40.56,40.56,0,0,0-4.11.88A41.71,41.71,0,0,0,47,80.36c-.31-.47-.61-.94-.91-1.42l.62-1.12c1.57-2.83,3-5.76,4.83-8.45,7.38-10,18.68-16.71,30.79-19.36a66.55,66.55,0,0,1,11.3-.52,36.13,36.13,0,0,1,24.94,8.87,47.09,47.09,0,0,1,15.84,32,3,3,0,0,1-.19,1.19,34.92,34.92,0,0,1-5.74,21.23c-10.11,17-28.6,28.06-47.82,31.49a1.58,1.58,0,0,1,.21.76v6.49a.33.33,0,0,1,0,.64v.21l.14.1c3.72-.79,7.45-1.59,11.23-2.12,5.36-2,11.07-3.08,16.07-6,5-2.69,10-5.48,14.85-8.51a68,68,0,0,0,15-15.9c1.44-1.76,2-4.08,3.59-5.73,2.17-5.2,4.31-10.48,5.13-16.11,2.19-11.26-.12-23-5.17-33.19-7.72-14.5-22.82-23.89-38.74-26.78-4.23-.8-8.54-1.12-12.79-1.77a118,118,0,0,0,11.21-5.84c-11-.47-22.16.51-32.61,4.18A62.36,62.36,0,0,0,43.57,52.79l-2.3-.2c-.39-.59-.8-1.18-1.18-1.77C41.5,48.25,43.86,46,45.93,44a63.77,63.77,0,0,1,6.71-5.79,65.21,65.21,0,0,1,15.44-8.64c1.37-.55,2.76-1,4.17-1.49a68.06,68.06,0,0,1,38-.64,79.28,79.28,0,0,1,31.32,16.63c8.8,7.56,16.17,17.18,19.84,28.26,1.75,3.89,2.36,8.16,3.83,12.16.7-1,.45-2.27.4-3.44-.5-6.61-3.61-12.51-6.09-18.52a111.11,111.11,0,0,0-13-17.82c-14.31-15-34.26-26.14-55.46-25.65-3.47-.25-7-.49-10.3.78,5.77-3.1,12.45-2.89,18.8-3.07a94.84,94.84,0,0,1,20.86,2.85,84.26,84.26,0,0,1,35.63,22c12.94,13.29,22,30,28.53,47.24.34.88.72,1.72,1,2.63s.52,1.88.77,2.83c.36,1.38.94,2.73,1.39,4.1a12.78,12.78,0,0,1,.54,2.13c.12.73.09,1.47.28,2.19.23.88.55,1.74.77,2.63a8.83,8.83,0,0,1-.22-1.35,24.23,24.23,0,0,1,.24-2.54A26.67,26.67,0,0,0,189.31,98.6Zm-117-39.31.39.21-.29.15-.2-.33Z"/><path class="cls-19" d="M72.66,59.5l-.29.15-.2-.33.1,0Z"/><path class="cls-20" d="M150.22,197.56c.2,5.1-3.52,9.69-8.2,11.35a11.85,11.85,0,0,1-12.59-4.19c-.58-1.36-2.54-2.93-1.39-4.44l-1.19-2.05c.63-3.67,1.87-7.53,5-9.81,4.7-3.07,12-2.89,15.58,1.8C148.67,192.52,150.44,194.83,150.22,197.56Z"/><path class="cls-21" d="M84.22,160.77a19.71,19.71,0,0,1,4.25-2.37c.59,1.06,1.16,2.14,1.76,3.19-.56,2-2.32,2.6-4.21,2.22Z"/><path class="cls-22" d="M141.17,137.46c-1.36-1.32-2.63-2.78-2.62-4.77l3.73-2.39c2.09.63,3.95,3.51,2.55,5.51A15.67,15.67,0,0,1,141.17,137.46Z"/><path class="cls-23" d="M4.87,79.25a10.24,10.24,0,0,1,3.47-4.46c1.94.12,4.05.36,5.34,2,1.72,3.1-1.27,7.33-4.73,6.81C6.55,83.53,6,80.88,4.87,79.25Z"/><path class="cls-24" d="M141.43,152.89l-1,.5-.7.31a3.17,3.17,0,0,1-.74.49l-1.59.73a21.71,21.71,0,0,1-6.45,2.8l0,0c-1.71.6-3.44,1.49-5.27,1.58l-2.49.87a57.76,57.76,0,0,0,18.75-2.92A17.63,17.63,0,0,1,141.43,152.89Z"/><path class="cls-25" d="M182.4,103.38a48.19,48.19,0,0,0-1-6.44c-.51-2.22-.76-4.51-1.49-6.67-2.65-7.84-5.39-15.82-9.67-23a42.14,42.14,0,0,0-3.82-5.37c-2.37-4.38-6-7.82-8.91-11.8,1.47,4.74,4.53,8.67,6.89,13a91.56,91.56,0,0,1,6,11.72c1.4,3.28,2.53,6.68,3.84,10a34.89,34.89,0,0,1,1.71,5.84c.38,2,.45,4,.75,5.93a44.57,44.57,0,0,1,.55,6.72,51.29,51.29,0,0,1-2,14.31c-.39,1.34-.83,2.67-1.33,4-.42,1.08-.87,2.15-1.37,3.2a52.08,52.08,0,0,1-7.19,10.84A49.59,49.59,0,0,1,155,144.83a2.68,2.68,0,0,0-1,.95,2.6,2.6,0,0,0-.18.92q-.17,2.85-.35,5.7a85.6,85.6,0,0,0,11.59-6.81c1-.76,2-1.58,3-2.44.49-.43,1-.88,1.43-1.34a2.33,2.33,0,0,0,.9-1.32c.15-1,.18-1.93.28-2.9.08-.78.21-1.55.34-2.32l.29-1.63c.09-.56.22-1.4.94-1.43a.65.65,0,0,1,.66.66c0,.09,0,.18,0,.26a.9.9,0,0,1,.08.28c.11,1.34.28,2.68.47,4a43,43,0,0,0,4.54-7.08,38.36,38.36,0,0,0,2.86-7.44c.27-1.07.5-2.15.7-3.24A60.36,60.36,0,0,0,182.4,103.38Z"/><path class="cls-26" d="M23.47,139.65a4.59,4.59,0,0,1,5.59-2.7c1.7,1,1.69,3.17,1.7,4.89-1.56,1.1-3.67,2.69-5.6,1.51C24.51,142.15,24,140.89,23.47,139.65Z"/><path class="cls-27" d="M36.24,182.8l2.88,2.11-2.51-1.14a17.36,17.36,0,0,0-3.55,9.11l8.09-4.44c.75,1.21.26,2.78-.29,4.08-1.41,3.33-3.23,6.71-6.3,8.62a10.21,10.21,0,0,1-5.09,1.54,11.64,11.64,0,0,1-5.22-1.16,16.14,16.14,0,0,1-3.57-2.36,19.86,19.86,0,0,1-1.55-1.49,3.84,3.84,0,0,1-.59-.62c-.21-.34-.39-.71-.57-1.07a18.62,18.62,0,0,1-1.09-2.76,21.78,21.78,0,0,1-.78-8.11A29.32,29.32,0,0,1,18,177a34.89,34.89,0,0,1,1.76-3.77,21.55,21.55,0,0,1,2.14-3.42c5.21-6.33,12.72-10.32,20.34-13.06a26.83,26.83,0,0,1,7.51-2c4.67-1.72,9.77-.86,14.52-2,0-.3,0-.61,0-.91l-.26-1c.1-.17.17-.34.25-.5,0-1.39-.07-2.77-.08-4.15a1.58,1.58,0,0,1,0-.38c-4.56,1-9.33.88-13.8,2.33-.8.26-1.7.36-2.52.54s-1.72.42-2.57.66c-1.69.46-3.36,1-5,1.58a56.56,56.56,0,0,0-10.84,5.2c-1.24.77-2.45,1.58-3.61,2.45a34.26,34.26,0,0,0-4.83,4.25c-.67.72-1.31,1.46-1.93,2.22-.76.93-1.5,1.88-2.24,2.83a19,19,0,0,0-1.61,2.27,27.63,27.63,0,0,0-1.92,4.52,33.57,33.57,0,0,0-2.05,11.51,23.59,23.59,0,0,0,2.85,11.22c2,4.5,6.13,8.47,11.2,9a9.15,9.15,0,0,0,1.05.15,14.55,14.55,0,0,0,8.78-2.19,18.17,18.17,0,0,0,6-6,49.46,49.46,0,0,0,3.5-7.39q2,4.84,4,9.7c1.29-.69,1.9-2.17,2.34-3.57,1.8-5.75,2.25-11.83,3-17.81a51.92,51.92,0,0,1,1.37-7.53,31.55,31.55,0,0,1,2.11-5.58,27.76,27.76,0,0,0-12.31,6.08A46.17,46.17,0,0,0,36.24,182.8Z"/><path class="cls-28" d="M5.9,176.36c-.71-1.28-2.36-3-.72-4.23,1.54-1.65,3,.79,3.91,1.83A8.77,8.77,0,0,1,5.9,176.36Z"/><path class="cls-29" d="M72.66,59.5l-.29.15-.2-.33.1,0Z"/><path class="cls-30" d="M414.53,170.08l0,0h0Z"/><path class="cls-31" d="M414.65,170.27l-.34.37,0-.06.06-.08.16-.24a.14.14,0,0,0,0-.06v0Z"/><path class="cls-32" d="M566.82,118.78a85,85,0,0,0-15-32c-7.53-10-17.52-18.41-29.4-22.66-13.35-4.77-28.07-5.75-42.06-3.94a82.09,82.09,0,0,0-11.11,2.21c-21.37,5.85-36,20.76-45,39.49q-1.1,2.27-2.07,4.6a32.55,32.55,0,0,1,6,3.61l-5.68,26.64a36.16,36.16,0,0,0-6.36-11.39c-.29,1.17-.56,2.34-.82,3.52-.36,1.62-2.55,7.74-1.9,9.36a64.39,64.39,0,0,1,12.77,7.74q6.3,5.16,6.3,14.53a22.57,22.57,0,0,1-3.66,12.36,20.64,20.64,0,0,1-1.83,2.46,40.17,40.17,0,0,1,3.64,6.27c18.49,26,53.69,36,83.94,27.95,11.47-3.07,21.76-10.87,30.3-18.87a76.92,76.92,0,0,0,18.71-27.43,73.66,73.66,0,0,0,3.08-9.54A75.32,75.32,0,0,0,566.82,118.78Zm-82.08,47.66a2,2,0,0,1-1.81,1.52c-.65,0-1.3-.51-1.92-1.52a11.67,11.67,0,0,0-.52-1.27,6.56,6.56,0,0,0-3.14-1.57,96.57,96.57,0,0,0-29-5c-1.38,0-2.73.06-4.06.17-.65.7-1.73,1.84-3.25,3.44-.62.62-1.81.73-3.54.35-1.71-.62-2.49-1.65-2.39-3.09a28.49,28.49,0,0,1,1.3-7.15,4.23,4.23,0,0,1,4.44-3c.44,0,2.74.19,6.88.57a148.56,148.56,0,0,0,22.72-22.75,21.86,21.86,0,0,0,5.25-13.94,6.37,6.37,0,0,0-.54-3.14c-.57-.84-1.79-1.27-3.65-1.27a18.25,18.25,0,0,0-2.33.16c-4.71.54-10,3.14-16,7.74-1.41,1.09-2.11,2.2-2.11,3.36,0,0,.22,1,.6,3.14.18,1.25-.06,1.87-.71,1.87a3.09,3.09,0,0,1-2.08-1.11,46.54,46.54,0,0,1-3.55-4.06,8,8,0,0,1-1.71-4,3.76,3.76,0,0,1,1.82-2.92c11.64-8.37,20.63-12.46,27.05-12.27,1.49.08,3.06,1.52,4.63,4.3a39.55,39.55,0,0,0,4.17-1c1.65.07,2.46,2.45,2.46,7.13,0,4.15-.21,6.94-.67,8.37q-1.43,4.31-7.4,10.4a258.06,258.06,0,0,1-22.74,20.88,95.63,95.63,0,0,1,29,6.87c2.38,1,3.6,2.55,3.6,4.77A19,19,0,0,1,484.74,166.44Zm48.72-19.55c.08-.38.51-.78,1.3-1.22a1.59,1.59,0,0,1,1.68,1.22l1,5.12a14.08,14.08,0,0,1,.33,2.11c0,1.3-1.17,2.17-3.55,2.55a61.33,61.33,0,0,1-8.94.57,120.72,120.72,0,0,0-2.38,16,4.75,4.75,0,0,0,.16,2.25,6.6,6.6,0,0,0,.71.84,1.25,1.25,0,0,1,.16.65,1.57,1.57,0,0,1-1.79,1.73,3,3,0,0,1-.76-.11,35.3,35.3,0,0,1-5.22-2.63,3.61,3.61,0,0,1-1.06-2.49q0-1.57,3.55-16.11a250.25,250.25,0,0,1-26.56-.24,4.39,4.39,0,0,1-1.06,1.87,5.27,5.27,0,0,1-2.57-.06,2.39,2.39,0,0,1-1.84-1.22c-.41-.78-.65-2.43-.76-5-.08-2.13.76-3.38,2.49-3.79a109.48,109.48,0,0,0,8.37-8.31,86.17,86.17,0,0,0,14-20.17l-3.33-5.23a1.75,1.75,0,0,1-.21-.76c0-1,.78-1.46,2.38-1.27.54.08,1.3-.59,2.27-2,1.9-2.84,4.2-6.49,6.91-11a2.42,2.42,0,0,1,2.27-1.57,16,16,0,0,1,4.47,1.79c.89.48,1.35,1,1.35,1.76a9.28,9.28,0,0,1-.81,2.89q-4.3,10.53-14.19,24.48A138.41,138.41,0,0,1,497,148c-.59.7-.16,1.14,1.27,1.33a103.29,103.29,0,0,0,22.4.7,189.88,189.88,0,0,1,9.18-27.27c.94-2.14,2-3.41,3.14-3.84.19,0,1.22-.06,3.08-.06,1.2,0,1.82.19,1.82.6,0,.24-.38.76-1.11,1.49-1.44,1.49-3.2,5.31-5.23,11.53a145.87,145.87,0,0,0-4.66,17Q532.32,149.41,533.46,146.89Z"/></g></g></svg>