<svg width="1656" height="1040" viewBox="0 0 1656 1040" fill="none" xmlns="http://www.w3.org/2000/svg">
<g clip-path="url(#clip0_14_107)">
<path d="M458.7 280.61C469.041 282.8 478.787 287.195 487.275 293.495C496.089 300.03 503.788 307.947 510.075 316.94C516.741 326.437 521.901 336.905 525.375 347.975C529.046 359.503 530.898 371.532 530.865 383.63C530.836 394.781 528.882 405.843 525.09 416.33C521.327 426.941 516.064 436.957 509.46 446.075C503.1 454.917 495.403 462.715 486.645 469.19C478.351 475.421 468.824 479.813 458.7 482.075C451.661 483.521 444.519 484.409 437.34 484.73C429.26 485.16 421.08 485.38 412.8 485.39C404.52 485.4 396.74 485.165 389.46 484.685C382.15 484.255 376.38 483.815 372.15 483.365C367.91 482.475 365.79 479.83 365.79 475.43C365.79 470.15 367.91 467.51 372.15 467.51C377.145 467.075 382.545 466.52 388.305 465.86C394.065 465.2 399.075 464.36 403.305 463.55V318.26C403.305 314.735 404.805 312.965 407.925 312.965C410.615 312.965 411.96 314.73 411.96 318.26V462.26H412.545C420.53 461.408 428.173 458.566 434.775 453.995C441.687 449.189 447.652 443.148 452.37 436.175C457.521 428.591 461.42 420.23 463.92 411.41C466.578 402.399 467.941 393.055 467.97 383.66C467.944 374.217 466.878 364.805 464.79 355.595C462.783 346.431 459.373 337.633 454.68 329.51C450.218 321.773 444.347 314.94 437.37 309.365C430.177 303.735 421.583 300.177 412.515 299.075H363.435C360.979 299.069 358.555 299.632 356.354 300.72C354.152 301.808 352.232 303.391 350.745 305.345C347.208 309.73 345.361 315.239 345.54 320.87V577.13C345.54 590.8 347.755 602.8 352.185 613.13C356.112 622.561 361.067 631.53 366.96 639.875C372.866 648.441 380.073 656.032 388.32 662.375C393.9 664.64 409.455 670.7 412.77 670.925C459.84 674.03 377.73 674.255 371.58 674.255H271.08C264.54 674.255 181.08 674.03 227.19 670.925C230.52 670.7 246.06 667.775 253.77 662.375C262.017 656.032 269.224 648.441 275.13 639.875C280.996 631.524 285.931 622.555 289.845 613.13C294.255 602.76 296.46 590.54 296.46 576.47V559.31C294.809 563.504 292.88 567.583 290.685 571.52C288.074 576.133 284.976 580.452 281.445 584.405C274.515 593.215 267.205 598.935 259.515 601.565C252.395 604.177 244.664 604.636 237.285 602.885C230.437 601.188 224.148 597.738 219.035 592.876C213.923 588.013 210.163 581.905 208.125 575.15C206.643 569.895 206.25 564.392 206.97 558.98C207.616 554.705 208.986 550.571 211.02 546.755C212.695 543.533 215.055 540.717 217.935 538.505C220.304 536.67 223.075 535.426 226.02 534.875C224.793 539.723 224.403 544.745 224.865 549.725C225.199 555.458 226.673 561.068 229.2 566.225C231.764 571.355 235.915 575.521 241.035 578.105C246.415 580.985 253.345 581.095 261.825 578.435C269.892 576.1 276.857 570.955 281.46 563.93C286.317 556.331 289.833 547.954 291.855 539.165C294.241 529.094 295.593 518.806 295.89 508.46C296.28 497.46 296.475 486.89 296.475 476.75V358.535C287.605 369.115 276.345 382.435 262.695 398.495C249.045 414.555 234.615 431.615 219.405 449.675L173.79 503.825C158.57 521.885 145.005 537.955 133.095 552.035C103.095 588.145 80 622.71 63.81 655.73C47.62 688.75 36.945 719.785 31.785 748.835C26.575 777.905 26.19 804.655 30.63 829.085C35.07 853.515 42.86 874.975 54 893.465C60.4683 903.943 67.9113 913.786 76.23 922.865C84.1292 931.595 93.5083 938.862 103.935 944.33C114.111 949.603 125.17 952.958 136.56 954.23C148.11 955.55 160.235 953.79 172.935 948.95C185.997 944.122 197.409 935.666 205.83 924.575C214.68 913.115 218.34 899.685 216.81 884.285C216.153 877.136 214.115 870.183 210.81 863.81C207.728 857.879 203.513 852.61 198.405 848.3C193.529 844.142 187.822 841.074 181.665 839.3C175.264 837.531 168.535 837.305 162.03 838.64C155.245 839.875 148.814 842.583 143.19 846.575C137.571 850.578 132.77 855.619 129.045 861.425C125.13 867.53 122.208 874.219 120.39 881.24C118.469 888.448 117.884 895.947 118.665 903.365V904.685C110.185 898.525 104.12 889.06 100.47 876.29C96.7993 863.401 94.9563 850.061 94.995 836.66C95.1764 826.844 97.0278 817.13 100.47 807.935C104.159 797.524 109.202 787.645 115.47 778.55C121.905 769.204 129.8 760.954 138.855 754.115C147.841 747.179 158.317 742.429 169.455 740.24C186.765 737.15 202.06 737.7 215.34 741.89C228.09 745.773 239.821 752.432 249.69 761.39C248.909 762.309 248.497 763.485 248.535 764.69C247.777 766.408 247.385 768.265 247.385 770.142C247.385 772.02 247.777 773.877 248.535 775.595C249.844 779.05 252.288 781.959 255.465 783.845C256.917 784.5 258.492 784.839 260.085 784.839C261.678 784.839 263.253 784.5 264.705 783.845C263.946 777.93 263.561 771.973 263.55 766.01C263.494 760.592 264.482 755.214 266.46 750.17C268.389 744.246 271.445 738.75 275.46 733.985C278.603 730.223 282.424 727.083 286.725 724.73C290.139 722.887 293.851 721.658 297.69 721.1C300.558 720.661 303.477 720.661 306.345 721.1C316.345 722.85 324.62 729.235 331.17 740.255C337.72 751.275 338.875 763.825 334.635 777.905C331.935 785.825 327.99 791.325 322.8 794.405C318.083 797.387 312.445 798.559 306.93 797.705C302.391 796.666 298.145 794.615 294.51 791.705C290.54 788.724 287.611 784.567 286.14 779.825H286.725C288.666 780.902 290.85 781.467 293.07 781.467C295.29 781.467 297.474 780.902 299.415 779.825C303.681 777.58 306.971 773.842 308.655 769.325C310.575 764.675 310.575 759.455 308.655 754.805C306.979 750.283 303.687 746.542 299.415 744.305C297.476 743.221 295.291 742.652 293.07 742.652C290.849 742.652 288.664 743.221 286.725 744.305C282.453 746.542 279.161 750.283 277.485 754.805C276.264 757.66 275.393 760.651 274.89 763.715C274.286 767.54 274.186 771.428 274.59 775.28C274.98 779.67 275.75 785.06 276.9 791.45C278.424 799.358 280.352 807.184 282.675 814.895H282.105C284.36 822.584 286.094 830.417 287.295 838.34C288.446 845.88 288.643 853.536 287.88 861.125C286.684 877.117 283.463 892.893 278.295 908.075C273.298 923.114 265.991 937.284 256.635 950.075C247.218 962.7 235.459 973.394 222 981.575C208.14 990.195 191.96 995.83 173.46 998.48C157.431 1000.63 141.133 999.508 125.55 995.18C108.204 990.386 91.9364 982.316 77.625 971.405C62.235 959.945 48.285 944.445 35.775 924.905C23.265 905.365 13.56 881.02 6.65998 851.87C0.995235 828.659 -1.02891 804.708 0.659979 780.875C2.30785 758.224 6.5712 735.84 13.365 714.17C19.9772 693.049 28.5547 672.595 38.985 653.075C48.8927 634.502 59.8815 616.526 71.895 599.24C83.445 582.74 94.895 567.66 106.245 554C117.595 540.34 127.5 528.46 135.96 518.36C146.35 506.04 157.8 492.5 170.31 477.74C182.82 462.98 195.235 448.23 207.555 433.49C219.875 418.74 231.805 404.545 243.345 390.905C254.885 377.265 265.09 365.155 273.96 354.575C279.34 347.975 283.84 339.06 287.46 327.83C291.047 317.091 292.713 305.803 292.38 294.485C292.078 283.866 288.973 273.517 283.38 264.485C277.8 255.485 268.465 250.095 255.375 248.315C252.044 247.855 248.652 248.157 245.454 249.196C242.256 250.235 239.335 251.985 236.91 254.315C231.464 259.261 228.151 266.129 227.67 273.47C226.831 280.7 228.678 287.987 232.86 293.945C237.09 300.115 242.48 303.615 249.03 304.445C252.333 304.917 255.7 304.66 258.892 303.69C262.085 302.721 265.027 301.064 267.51 298.835C270.215 296.462 272.423 293.577 274.006 290.345C275.589 287.114 276.517 283.602 276.735 280.01V279.35C280.339 284.559 282.619 290.567 283.38 296.855C284.326 303.6 283.815 310.47 281.88 317C279.18 324.48 274.08 331.19 266.58 337.13C259.08 343.07 249.8 345.385 238.74 344.075C228.35 342.755 219.98 339.45 213.63 334.16C207.434 329.087 202.495 322.649 199.2 315.35C195.945 308.184 194.174 300.434 193.995 292.565C193.753 284.977 194.632 277.396 196.605 270.065C197.37 267.86 198.81 264.065 200.925 258.5C203.394 252.432 206.913 246.847 211.32 242C216.61 236.165 223.111 231.557 230.37 228.5C238.26 224.97 248.17 224.09 260.1 225.86C272.187 227.285 283.307 233.169 291.285 242.36C299.012 251.066 305.425 260.854 310.32 271.415C309.881 272.687 309.687 274.031 309.75 275.375C309.594 279.346 310.932 283.232 313.5 286.265C314.58 287.613 315.95 288.7 317.508 289.445C319.067 290.191 320.773 290.575 322.5 290.57C324.31 290.617 326.106 290.255 327.756 289.509C329.405 288.764 330.865 287.654 332.025 286.265C334.587 283.228 335.924 279.345 335.775 275.375C345.775 275.375 355.685 275.155 365.505 274.715C375.325 274.275 385.22 273.395 395.19 272.075L394.62 274.055C394.436 278.288 395.654 282.464 398.085 285.935C399.184 287.362 400.59 288.523 402.2 289.333C403.809 290.142 405.58 290.579 407.381 290.61C409.182 290.642 410.967 290.268 412.603 289.516C414.24 288.764 415.686 287.652 416.835 286.265C419.407 283.233 420.751 279.348 420.6 275.375C420.55 272.576 419.752 269.842 418.29 267.455C423.285 266.135 427.605 264.815 431.28 263.48C434.955 262.145 437.91 261.065 440.28 260.18C454.91 251.83 464.725 241.705 469.725 229.805C472.649 223.629 473.94 216.807 473.475 209.99C473.073 204.331 471.269 198.862 468.225 194.075C465.473 189.806 461.706 186.286 457.26 183.83C453.153 181.472 448.341 180.653 443.685 181.52C449.455 171.85 456.77 166.235 465.63 164.675C474.246 163.099 483.141 164.624 490.74 168.98C498.62 173.38 504.97 180.31 509.79 189.77C514.61 199.23 515.86 210.57 513.54 223.79C510.82 239.23 504.275 251.325 493.905 260.075C483.236 269.051 470.871 275.79 457.545 279.89C458.31 279.95 458.7 280.175 458.7 280.61ZM402.69 215.225C402.687 210.38 400.946 205.696 397.785 202.025C394.293 197.91 389.828 194.733 384.795 192.785L407.895 142.58L430.395 192.785C425.36 194.729 420.894 197.906 417.405 202.025C414.244 205.696 412.503 210.38 412.5 215.225C412.5 219.635 414.23 224.26 417.69 229.1L411.96 241.655V275.33C411.96 278.85 410.615 280.61 407.925 280.61C404.835 280.61 403.305 278.855 403.305 275.33V241.655L397.53 229.1C400.97 224.26 402.69 219.635 402.69 215.225ZM412.515 766.01C412.562 770.938 414.293 775.701 417.42 779.51C420.83 783.79 425.311 787.092 430.41 789.08L407.91 839.27L384.81 789.08C389.906 787.088 394.387 783.787 397.8 779.51C400.927 775.701 402.658 770.938 402.705 766.01C402.705 762.01 400.975 757.61 397.515 752.81L403.29 740.255V612.14C397.51 609.93 394.625 605.305 394.635 598.265C394.635 591.665 397.52 587.265 403.29 585.065V511.1C403.29 507.575 404.79 505.805 407.91 505.805C410.6 505.805 411.945 507.57 411.945 511.1V585.065C417.725 587.275 420.615 591.675 420.615 598.265C420.615 605.265 417.725 609.89 411.945 612.14V740.255L417.72 752.81C414.25 757.64 412.515 762.04 412.515 766.01Z" fill="#1E1E1E"/>
<path d="M487.755 545.975C487.642 529.345 490.45 512.824 496.05 497.165C501.189 482.602 508.856 469.06 518.7 457.16C527.948 446.005 539.37 436.85 552.27 430.25C565.065 423.803 579.193 420.444 593.52 420.444C607.847 420.444 621.975 423.803 634.77 430.25C647.677 436.845 659.104 446.002 668.355 457.16C678.182 469.063 685.835 482.605 690.96 497.165C702.017 528.848 702.017 563.342 690.96 595.025C685.847 609.559 678.177 623.062 668.31 634.895C659.022 646.039 647.604 655.218 634.725 661.895C621.953 668.419 607.816 671.821 593.475 671.821C579.134 671.821 564.997 668.419 552.225 661.895C539.353 655.214 527.941 646.035 518.655 634.895C508.788 623.062 501.118 609.559 496.005 595.025C490.405 579.284 487.613 562.682 487.755 545.975ZM570.015 429.575C561.965 431.915 555.09 437.03 549.39 444.92C543.69 452.81 539.325 462.81 536.295 474.92C534.202 482.708 532.752 490.655 531.96 498.68C531.375 505.55 531.075 510.68 531.075 514.265V518.765C531.083 526.035 531.463 533.299 532.215 540.53C532.996 548.015 534.213 555.447 535.86 562.79C538.605 576.834 542.735 590.571 548.19 603.8C552.765 615.087 558.629 625.808 565.665 635.75C571.292 643.812 578.276 650.836 586.305 656.51C592.714 661.164 600.391 663.749 608.31 663.92C609.813 663.921 611.315 663.841 612.81 663.68C614.273 663.523 615.709 663.18 617.085 662.66C625.145 660.49 632.065 655.375 637.845 647.315C644.148 638.162 648.723 627.934 651.345 617.135C653.407 609.465 654.837 601.639 655.62 593.735C656.13 587.36 656.37 582.92 656.37 580.4C656.37 579.74 656.37 578.69 656.25 577.265C656.13 575.84 656.13 574.865 656.13 574.37C655.829 544.875 650.024 515.695 639.015 488.33C634.43 477.047 628.567 466.327 621.54 456.38C615.888 448.299 608.861 441.272 600.78 435.62C593.4 430.69 586.105 428.22 578.895 428.21C577.391 428.206 575.889 428.292 574.395 428.465C572.892 428.64 571.42 429.013 570.015 429.575ZM564.225 546.05C568.807 545.049 573.246 543.482 577.44 541.385C580.538 539.775 583.242 537.501 585.36 534.725C587.54 531.681 589.161 528.273 590.145 524.66C591.315 520.66 592.485 515.715 593.655 509.825C594.835 515.695 595.97 520.765 597.06 525.035C597.943 528.854 599.519 532.479 601.71 535.73C603.754 538.609 606.474 540.942 609.63 542.525C613.8 544.451 618.27 545.643 622.845 546.05C618.262 547.04 613.823 548.602 609.63 550.7C606.505 552.33 603.796 554.654 601.71 557.495C599.549 560.576 597.972 564.029 597.06 567.68C595.96 571.68 594.825 576.625 593.655 582.515C592.525 576.555 591.355 571.575 590.145 567.575C589.145 563.931 587.526 560.486 585.36 557.39C583.274 554.549 580.565 552.225 577.44 550.595C573.246 548.507 568.806 546.955 564.225 545.975V546.05Z" fill="#1E1E1E"/>
<path d="M764.91 533.075C764.91 610.04 795.72 635.075 795.72 635.075L805.71 644.915L764.91 643.415C702.015 644.915 702.015 774.725 702.015 774.725L525.96 681.92C698.91 737.555 720.96 575.285 720.96 575.285V149.075C717.81 81.38 677.565 58.205 677.565 58.205L670.56 51.335H802.56L795.72 58.205C795.72 58.205 764.91 84.155 764.91 160.205V533.075Z" fill="#1E1E1E"/>
<path d="M1002.66 698.645C988.121 699.269 973.786 695.048 961.905 686.645C941.79 672.56 937.755 660.485 937.755 660.485L939.765 619.73C915.765 619.865 855.675 655.73 852.96 674.105C870.435 637.025 813.39 574.13 790.065 586.055L947.325 471.8L947.82 466.775C947.82 466.775 905.565 443.615 902.535 442.115C861.78 469.28 858.27 508.535 858.27 508.535L819.525 460.73L902.535 404.885L990.09 449.075V660.41C990.09 677.51 1002.66 698.645 1002.66 698.645ZM860.28 578.9L869.835 592.985C881.835 609.08 901.035 610.085 918.645 598.52C926.685 594.02 936.255 578.9 942.285 568.325L945.285 508.46L860.28 578.9Z" fill="#1E1E1E"/>
<path d="M1129.16 548.945L1125.68 538.88L1171.83 477.38L1142.94 435.905L1087.55 502.085V634.805C1090.44 678.65 1115.87 692.87 1115.87 692.87L1126.53 699.125H997.53L1007.16 692.87C1007.16 692.87 1035.48 676.865 1035.48 627.095V469.55C1035.48 420.38 1007.16 404.375 1007.16 404.375L1000.68 400.445H1123.32L1115.82 404.375C1115.82 404.375 1090.32 418.595 1087.5 461.255C1110 439.34 1152.21 398.45 1154.52 399.05C1194.39 461.255 1231.95 480.815 1230.21 482C1204.92 471.575 1136.16 523.04 1129.16 548.945Z" fill="#1E1E1E"/>
<path d="M1642.16 546.575C1633.98 533.544 1622.67 522.766 1609.26 515.225C1596.96 508.545 1575.36 499.885 1544.45 489.245C1511.25 477.775 1489.01 467.85 1477.73 459.47C1472.55 456.009 1468.34 451.29 1465.49 445.756C1462.64 440.223 1461.25 434.056 1461.44 427.835C1461.44 415.315 1468.32 404.56 1482.09 395.57C1495.68 386.57 1513.02 382.07 1534.11 382.07C1560.62 382.07 1583.16 387.81 1601.74 399.29C1620.74 410.99 1630.36 428.95 1630.58 453.17H1637.16C1637.57 445.235 1637.79 438.545 1637.79 433.13C1637.79 424.99 1637.47 415.59 1636.84 404.93C1636.42 396.15 1636.22 388.65 1636.22 382.43L1635.59 370.535V368.33C1600.94 359.98 1571.59 355.8 1547.56 355.79C1512.28 355.79 1485.03 362.37 1465.8 375.53C1446.59 389.12 1436.99 407.81 1437 431.6C1437 452.27 1443.27 467.515 1455.81 477.335C1468.32 486.945 1495.15 498.535 1536.3 512.105C1563.63 521.105 1583.36 529.565 1595.49 537.485C1607.7 545.558 1617.95 556.259 1625.49 568.805C1633.23 581.805 1637.1 596.625 1637.1 613.265C1637.1 631.035 1633.55 644.82 1626.44 654.62C1645.65 639.81 1655.26 619.35 1655.27 593.24C1655.46 576.75 1650.91 560.551 1642.16 546.575Z" fill="#1E1E1E"/>
<path d="M1614.96 616.415C1614.96 637.525 1607.02 656.635 1591.15 673.745C1578.7 687.145 1561.54 695.34 1539.66 698.33C1532.86 699.288 1525.99 699.749 1519.12 699.71C1518.43 699.71 1517.77 699.71 1517.04 699.71C1504.28 699.48 1487.01 697.09 1465.22 692.54C1445.22 688.39 1430.18 686.2 1420.12 685.97L1417.92 683.48C1418.14 679.94 1418.23 675.335 1418.23 669.68C1418.23 663.02 1417.62 652.685 1416.39 638.675C1415.31 624.68 1414.89 614.24 1414.89 607.355C1414.81 599.611 1415.23 591.87 1416.15 584.18H1423.35C1424.79 610.91 1435.54 632.945 1455.61 650.285C1468.84 662.119 1484.96 670.253 1502.34 673.865C1509.22 675.259 1516.23 675.953 1523.25 675.935C1524.25 675.935 1525.23 675.935 1526.25 675.935C1544.52 675.445 1559.52 669.945 1571.25 659.435C1583.58 648.385 1589.74 635.115 1589.74 619.625C1589.74 603.375 1583.79 590.745 1571.88 581.735C1560.4 572.965 1537.75 563.05 1503.93 551.99C1476.75 542.99 1457.43 535.58 1445.97 529.76C1433.23 523.423 1422.41 513.789 1414.65 501.86C1406.53 490.084 1402.25 476.083 1402.41 461.78C1402.41 445.29 1407.94 429.105 1419.01 413.225C1416.74 420.112 1415.49 427.292 1415.28 434.54C1415.28 450.83 1419.13 465.13 1426.84 477.44C1434.84 490.18 1444.67 499.79 1456.32 506.27C1467.98 512.93 1487.48 520.55 1514.82 529.13C1550.55 539.98 1576.34 551.98 1592.2 565.13C1607.37 577.76 1614.96 594.855 1614.96 616.415Z" fill="#1E1E1E"/>
<path d="M1285.91 779.075C1283.18 776.328 1281.61 772.639 1281.53 768.77C1281.53 765.77 1283.03 762.38 1286.19 758.705L1281 749.15V715.88C1281 713.21 1279.8 711.845 1277.42 711.845C1274.64 711.845 1273.26 713.21 1273.26 715.88V749.075L1268.1 758.63C1269.54 759.891 1270.69 761.437 1271.49 763.17C1272.3 764.903 1272.73 766.785 1272.77 768.695C1272.69 772.574 1271.11 776.271 1268.36 779C1265.17 782.38 1261.17 784.894 1256.74 786.305L1277.46 824.555L1297.59 786.32C1293.15 784.911 1289.14 782.421 1285.91 779.075ZM1285.91 337.58C1289.19 334.369 1293.18 331.957 1297.55 330.53L1277.46 291.74L1256.79 330.47C1261.16 331.875 1265.14 334.291 1268.4 337.52C1269.77 338.817 1270.87 340.376 1271.63 342.105C1272.38 343.834 1272.79 345.697 1272.81 347.585C1272.78 349.495 1272.34 351.377 1271.54 353.11C1270.74 354.843 1269.58 356.389 1268.15 357.65L1273.31 367.205V392.87C1273.31 395.57 1274.69 396.89 1277.46 396.89C1279.85 396.89 1281.05 395.57 1281.05 392.87V367.205L1286.24 357.65C1283.12 353.96 1281.57 350.6 1281.57 347.585C1281.6 345.705 1281.99 343.848 1282.73 342.121C1283.48 340.393 1284.56 338.83 1285.91 337.52V337.58ZM1565.12 780.575C1563.63 763.202 1559.81 746.109 1553.76 729.755C1549.77 718.982 1545.05 708.497 1539.62 698.375C1532.81 699.333 1525.95 699.794 1519.08 699.755C1518.39 699.755 1517.73 699.755 1516.99 699.755C1527.1 719.535 1534.02 738.35 1537.76 756.2C1542.41 778.34 1542.67 798.72 1538.54 817.34C1534.88 834.865 1527.88 851.52 1517.91 866.39C1512.07 874.436 1505.41 881.855 1498.04 888.53C1490.66 895.22 1482.31 900.735 1473.26 904.88C1463.96 909.095 1454 911.634 1443.83 912.38C1432.73 913.143 1421.59 911.69 1411.07 908.105C1399.86 904.736 1389.78 898.391 1381.91 889.745C1378.15 885.7 1375.34 880.868 1373.69 875.6C1372.03 870.332 1371.58 864.762 1372.35 859.295C1372.94 853.827 1374.7 848.549 1377.5 843.818C1380.31 839.087 1384.09 835.014 1388.61 831.875C1393.19 828.495 1398.42 826.102 1403.98 824.848C1409.53 823.593 1415.29 823.503 1420.88 824.585C1426.8 825.481 1432.49 827.518 1437.63 830.585C1442.53 833.523 1446.9 837.265 1450.56 841.655C1454.18 846.026 1456.89 851.074 1458.54 856.505C1460.24 861.953 1460.75 867.702 1460.04 873.365L1459.53 874.37C1467.12 869.68 1472.62 862.55 1476.03 852.98C1479.49 843.372 1481.07 833.186 1480.68 822.98C1480.5 815.434 1478.83 807.998 1475.78 801.095C1468.76 784.347 1456.9 770.074 1441.73 760.1C1433.54 754.705 1424.3 751.125 1414.62 749.6C1396.03 746.6 1379.95 747.69 1366.38 752.87C1353.6 757.52 1342.04 765.002 1332.57 774.755C1323.75 783.926 1317.06 794.92 1312.95 806.96C1308.96 818.07 1307.38 829.901 1308.3 841.67C1308.69 842.979 1308.86 844.341 1308.83 845.705C1311.87 844.669 1315.19 844.847 1318.11 846.2C1320.83 847.467 1322.98 849.718 1324.11 852.5C1324.71 853.809 1325 855.239 1324.95 856.677C1324.91 858.116 1324.53 859.525 1323.86 860.795C1322.97 862.983 1321.32 864.771 1319.21 865.82C1316.63 862.333 1313.78 859.052 1310.69 856.01C1307.77 853.156 1304.36 850.859 1300.62 849.23C1296.12 847.028 1291.2 845.825 1286.19 845.705C1282.07 845.66 1277.98 846.252 1274.04 847.46C1270.8 848.427 1267.76 849.95 1265.04 851.96C1263.05 853.447 1261.15 855.045 1259.34 856.745C1256.62 860.411 1254.69 864.605 1253.69 869.06C1252.65 873.531 1252.65 878.179 1253.69 882.65C1254.77 887.28 1256.78 891.642 1259.6 895.475C1262.74 899.663 1266.92 902.96 1271.73 905.045C1276.82 907.635 1282.66 908.347 1288.23 907.055C1292.94 906.001 1297.13 903.351 1300.11 899.555C1302.65 896.593 1304.43 893.048 1305.27 889.235C1306.33 885.25 1305.8 881.008 1303.77 877.415C1302.93 879.215 1301.75 880.832 1300.28 882.17C1298.82 883.509 1297.1 884.544 1295.24 885.215C1291.5 886.662 1287.34 886.576 1283.67 884.975C1279.99 883.374 1277.1 880.387 1275.62 876.665C1274.85 874.867 1274.48 872.927 1274.53 870.975C1274.57 869.023 1275.03 867.102 1275.87 865.34C1276.69 863.567 1277.87 861.985 1279.34 860.694C1280.81 859.403 1282.53 858.431 1284.39 857.84C1288.18 856.489 1292.34 856.667 1296 858.335C1303.54 861.367 1309.82 866.867 1313.82 873.935C1317.82 880.935 1321.69 887.81 1325.43 894.56C1334.05 908.009 1345.39 919.497 1358.73 928.28C1372.66 937.69 1389.95 943.725 1410.59 946.385C1424.9 948.032 1439.39 947.185 1453.41 943.88C1468.66 940.328 1483.16 934.107 1496.25 925.505C1510.75 915.927 1523.42 903.831 1533.66 889.79C1544.86 874.8 1553.54 856.395 1559.7 834.575C1564.75 817.049 1566.58 798.754 1565.12 780.575ZM1349.81 696.08C1362.38 692.93 1356.09 696.08 1337.81 689.765C1330.68 685.163 1324.26 679.572 1318.71 673.16C1313.54 666.903 1309.12 660.061 1305.54 652.775C1301.41 644.235 1299.35 634.84 1299.54 625.355V611.225C1302.64 618.483 1307.01 625.127 1312.46 630.845C1318.65 637.58 1325.27 641.915 1332.33 643.925C1338.85 645.916 1345.77 646.261 1352.46 644.93C1358.52 643.735 1364.19 641.055 1368.96 637.13C1373.32 633.674 1376.63 629.057 1378.49 623.81C1379.81 619.842 1380.17 615.614 1379.52 611.48C1378.91 608.175 1377.69 605.015 1375.91 602.165C1374.34 599.632 1372.22 597.483 1369.71 595.88C1367.53 594.461 1365.08 593.516 1362.51 593.105C1363.6 596.604 1363.95 600.294 1363.52 603.935C1363.21 608.447 1361.88 612.83 1359.65 616.76C1357.26 620.928 1353.57 624.199 1349.15 626.075C1344.33 628.265 1338.14 628.325 1330.56 626.315C1323.63 624.713 1317.44 620.811 1313.01 615.245C1308.73 609.616 1305.59 603.213 1303.74 596.39C1301.59 588.764 1300.38 580.907 1300.11 572.99C1299.76 564.62 1299.59 556.57 1299.59 548.84V457.34C1307.16 465.4 1317.16 475.545 1329.59 487.775C1342.02 500.005 1355.02 513.09 1368.59 527.03C1382.21 540.95 1395.89 554.87 1409.63 568.79C1423.37 582.71 1435.76 595.21 1446.8 606.29C1469.92 629.67 1488.42 652.215 1502.3 673.925C1509.18 675.319 1516.18 676.013 1523.21 675.995C1524.21 675.995 1525.19 675.995 1526.21 675.995C1518.35 663.995 1510.2 652.77 1501.77 642.32C1491.62 629.73 1481.47 618.23 1471.31 607.82C1461.15 597.41 1452.29 588.355 1444.73 580.655C1435.11 570.935 1424.7 560.535 1413.51 549.455C1402.32 538.375 1391.23 527.14 1380.24 515.75C1369.24 504.36 1358.57 493.46 1348.23 483.05C1337.89 472.64 1328.95 463.415 1321.4 455.375C1316.08 449.519 1311.96 442.681 1309.26 435.245C1306.05 427.17 1304.56 418.518 1304.87 409.835C1305.13 401.566 1307.93 393.578 1312.88 386.945C1317.88 380.255 1326.22 376.23 1337.91 374.87C1340.74 374.522 1343.62 374.741 1346.36 375.514C1349.11 376.286 1351.68 377.597 1353.92 379.37C1356.19 381.021 1358.09 383.125 1359.51 385.549C1360.93 387.974 1361.83 390.666 1362.15 393.455C1362.54 396.296 1362.35 399.185 1361.6 401.952C1360.85 404.719 1359.55 407.308 1357.79 409.565C1356.04 411.868 1353.83 413.776 1351.29 415.162C1348.75 416.547 1345.95 417.38 1343.07 417.605C1337.27 418.32 1331.42 416.701 1326.81 413.105C1324.47 411.496 1322.5 409.408 1321.03 406.979C1319.57 404.551 1318.63 401.838 1318.29 399.02V398.525C1315.36 402.261 1313.41 406.669 1312.62 411.35C1311.58 416.664 1312.1 422.166 1314.12 427.19C1316.55 432.92 1321.07 438.02 1327.8 442.55C1334.54 447.08 1342.68 448.835 1352.3 447.83C1361.62 446.83 1369.12 444.33 1374.8 440.33C1380.18 436.641 1384.61 431.726 1387.73 425.99C1390.6 420.639 1392.18 414.691 1392.35 408.62C1392.56 402.829 1391.77 397.045 1390.02 391.52C1389.36 389.855 1388.07 386.93 1386.15 382.715C1383.87 377.979 1380.72 373.71 1376.87 370.13C1371.98 365.617 1366.3 362.056 1360.11 359.63C1353.23 356.79 1344.46 356.035 1333.79 357.365C1322.09 359.055 1312.62 363.415 1305.39 370.445C1298.62 376.915 1292.87 384.381 1288.35 392.585C1288.9 393.502 1289.25 394.524 1289.39 395.585C1289.44 397.129 1289.17 398.667 1288.59 400.098C1288.01 401.53 1287.14 402.824 1286.03 403.895C1284.9 404.986 1283.57 405.838 1282.12 406.4C1280.66 406.962 1279.1 407.222 1277.54 407.165C1276.02 407.176 1274.52 406.882 1273.12 406.301C1271.73 405.72 1270.46 404.863 1269.4 403.783C1268.34 402.702 1267.51 401.42 1266.96 400.011C1266.4 398.603 1266.14 397.098 1266.18 395.585C1265.78 396.215 1265.4 396.875 1265.01 397.505C1245.11 397.955 1229.01 397.76 1217.85 397.505C1217.25 397.505 1192.73 396.935 1192.7 397.505C1198.09 397.556 1203.42 398.625 1208.42 400.655C1210.2 401.435 1212.92 402.785 1223.07 411.695C1230.11 417.815 1233.57 420.965 1236.49 424.01C1241.87 429.721 1246.41 436.159 1249.99 443.135C1254.09 451.325 1256.12 460.394 1255.91 469.55V625.55C1256.13 635.06 1254 644.478 1249.71 652.97C1246.01 660.237 1241.52 667.074 1236.32 673.355C1230.77 679.761 1224.34 685.351 1217.24 689.96C1199.06 696.275 1199.06 693.125 1205.34 696.275C1207.95 697.565 1226.85 699.515 1232.7 699.515H1322.48C1331.64 698.871 1340.77 697.709 1349.81 696.035V696.08Z" fill="#1E1E1E"/>
<path d="M1275.9 271.52C1290.66 271.52 1302.63 259.553 1302.63 244.79C1302.63 230.027 1290.66 218.06 1275.9 218.06C1261.14 218.06 1249.17 230.027 1249.17 244.79C1249.17 259.553 1261.14 271.52 1275.9 271.52Z" fill="#1E1E1E"/>
<path fill-rule="evenodd" clip-rule="evenodd" d="M1281.57 257.075C1275.13 136.655 1389.66 172.7 1415.59 121.13C1418.29 152.555 1397.59 163.715 1382.79 170.165C1368.87 176.24 1387.99 196.265 1409.79 169.61C1401.91 191.045 1385.91 197.84 1366.63 204.02C1349.31 209.585 1363.98 227.81 1377.97 211.985C1368.84 245.795 1305.76 228.38 1281.58 257.075H1281.57Z" fill="url(#paint0_radial_14_107)"/>
<path fill-rule="evenodd" clip-rule="evenodd" d="M1409.78 169.61C1392.27 204.695 1355.18 178.115 1330.41 192.515C1341.44 182.93 1358.58 177.935 1382.79 170.165C1368.87 176.24 1388 196.265 1409.79 169.61H1409.78Z" fill="url(#paint1_radial_14_107)"/>
<path fill-rule="evenodd" clip-rule="evenodd" d="M1377.96 211.985C1361.88 239.675 1335.85 213.605 1316.08 221.66C1327.71 213.785 1345.11 208.16 1366.62 204.02C1349.29 209.585 1363.96 227.81 1377.96 211.985Z" fill="url(#paint2_radial_14_107)"/>
<path fill-rule="evenodd" clip-rule="evenodd" d="M1308 116.72C1292.55 129.515 1277.34 139.49 1276.89 148.22C1279.43 144.11 1283.81 142.52 1287.26 139.7C1286.15 143.87 1281.26 146.525 1277.49 149.33C1272.99 152.72 1269.35 156.65 1269.99 163.64C1280.49 150.365 1296.6 155.825 1288.44 176.165C1283 189.665 1271.61 206.495 1272.2 218.045C1234.14 126.65 1311.95 114.89 1331.81 63.32C1338.02 75.32 1338.18 83.09 1328.27 96.74C1322.21 104.062 1315.41 110.738 1307.99 116.66L1308 116.72Z" fill="url(#paint3_radial_14_107)"/>
<path fill-rule="evenodd" clip-rule="evenodd" d="M1315.05 140.69C1311.62 136.715 1307.81 133.925 1303.14 133.625C1306.92 129.455 1308.77 123.95 1308 116.72C1315.43 110.798 1322.23 104.122 1328.28 96.8C1316.04 113.69 1337.88 113.855 1342.48 95.09C1348.48 107.87 1339.08 117.125 1331.76 126.17C1326.93 131.803 1321.3 136.695 1315.05 140.69Z" fill="url(#paint4_radial_14_107)"/>
<path fill-rule="evenodd" clip-rule="evenodd" d="M1325.29 155.645C1321.95 150.485 1318.71 144.92 1315.05 140.645C1321.3 136.65 1326.93 131.758 1331.76 126.125C1324.26 135.29 1336.26 144.29 1343.95 128.39C1342.45 141.965 1335.88 150.65 1325.29 155.6V155.645Z" fill="url(#paint5_radial_14_107)"/>
<path fill-rule="evenodd" clip-rule="evenodd" d="M220.32 284.075C229.8 107.765 61.32 160.55 23.13 85.025C19.17 131.075 49.575 147.41 71.46 156.86C91.95 165.74 63.81 195.065 31.77 156.02C43.35 187.4 66.9 197.375 95.265 206.42C120.765 214.565 99.165 241.265 78.57 218.075C92.07 267.575 184.815 242.075 220.38 284.075H220.32Z" fill="url(#paint6_radial_14_107)"/>
<path fill-rule="evenodd" clip-rule="evenodd" d="M31.71 156.02C57.465 207.41 112.035 168.485 148.47 189.56C132.255 175.52 107.025 168.215 71.4 156.86C91.89 165.74 63.75 195.065 31.71 156.02Z" fill="url(#paint7_radial_14_107)"/>
<path fill-rule="evenodd" clip-rule="evenodd" d="M78.51 218.075C102.165 258.575 140.46 220.46 169.56 232.25C152.43 220.7 126.84 212.405 95.205 206.42C120.705 214.565 99.105 241.265 78.51 218.075Z" fill="url(#paint8_radial_14_107)"/>
<path fill-rule="evenodd" clip-rule="evenodd" d="M181.44 78.575C204.165 97.31 226.545 111.905 227.22 124.775C223.485 118.775 217.035 116.45 211.965 112.31C213.6 118.415 220.875 122.3 226.335 126.41C232.89 131.375 238.335 137.12 237.345 147.41C221.805 127.91 198.195 135.965 210.195 165.74C218.22 185.555 234.96 210.125 234.105 227.075C290.1 93.26 175.605 76.04 146.4 0.574997C137.265 18.14 137.025 29.525 151.605 49.52C160.17 60.29 170.85 69.95 181.44 78.68V78.575Z" fill="url(#paint9_radial_14_107)"/>
<path fill-rule="evenodd" clip-rule="evenodd" d="M171.075 113.675C176.115 107.885 181.725 103.775 188.595 103.34C183.015 97.235 180.33 89.18 181.44 78.59C170.85 69.86 160.17 60.2 151.605 49.43C169.605 74.15 137.49 74.39 130.71 46.925C121.98 65.63 135.72 79.175 146.49 92.42C154.815 101.645 162.99 108.92 171.075 113.675Z" fill="url(#paint10_radial_14_107)"/>
<path fill-rule="evenodd" clip-rule="evenodd" d="M156 135.575C160.92 128.075 165.69 119.87 171.075 113.66C163.02 108.875 154.815 101.66 146.49 92.405C157.425 105.83 139.74 119 128.49 95.735C130.635 115.61 140.385 128.33 155.955 135.575H156Z" fill="url(#paint11_radial_14_107)"/>
</g>
<path d="M809.2 830.24C809.92 830.24 811.36 830.96 813.52 832.4C815.92 833.6 816.76 836.48 816.04 841.04L814.96 847.16L809.92 872H730C725.92 872 723.04 871.16 721.36 869.48C719.92 867.8 719.32 865.76 719.56 863.36C719.8 860.96 720.88 858.68 722.8 856.52C724.96 854.36 727.24 852.2 729.64 850.04C733.96 845.96 738.04 842.12 741.88 838.52C745.24 835.4 748.48 832.4 751.6 829.52C754.72 826.64 756.88 824.6 758.08 823.4C764.8 817.16 770.08 811.52 773.92 806.48C778 801.44 781 796.76 782.92 792.44C785.08 787.88 786.16 783.56 786.16 779.48C786.4 775.16 786.04 770.48 785.08 765.44C783.64 758.48 781.24 752.84 777.88 748.52C774.52 743.96 770.8 741.68 766.72 741.68C761.2 741.68 756.52 745.4 752.68 752.84C749.08 760.04 747.28 769.04 747.28 779.84C747.28 785.36 747.88 790.64 749.08 795.68C750.28 800.48 751.84 804.68 753.76 808.28C743.44 806.12 735.16 801.32 728.92 793.88C722.68 786.44 719.56 778.16 719.56 769.04C719.56 763.28 720.88 758 723.52 753.2C726.16 748.16 729.64 743.84 733.96 740.24C738.28 736.64 743.08 733.76 748.36 731.6C753.88 729.44 759.52 728.36 765.28 728.36H767.8C771.4 728.36 775.84 728.96 781.12 730.16C786.4 731.36 791.32 733.76 795.88 737.36C800.68 740.96 804.76 746 808.12 752.48C811.48 758.72 813.16 767 813.16 777.32C813.16 786.44 810.52 794.84 805.24 802.52C800.2 810.2 793.72 817.88 785.8 825.56C783.4 827.72 780.88 830.12 778.24 832.76C775.6 835.16 773.08 837.44 770.68 839.6C768.52 841.76 766.72 843.56 765.28 845C763.84 846.44 763.12 847.16 763.12 847.16H783.28C788.08 847.16 792.16 846.32 795.52 844.64C798.88 842.72 801.52 840.68 803.44 838.52C805.84 836.12 807.76 833.36 809.2 830.24ZM898.325 728.36C907.685 728.36 916.445 730.28 924.605 734.12C933.005 737.72 940.205 742.76 946.205 749.24C952.445 755.72 957.245 763.4 960.605 772.28C964.205 780.92 966.005 790.16 966.005 800C966.005 809.84 964.205 819.2 960.605 828.08C957.245 836.72 952.445 844.28 946.205 850.76C940.205 857.24 933.005 862.4 924.605 866.24C916.445 870.08 907.685 872 898.325 872C888.965 872 880.205 870.08 872.045 866.24C863.885 862.4 856.685 857.24 850.445 850.76C844.445 844.28 839.645 836.72 836.045 828.08C832.445 819.2 830.645 809.84 830.645 800C830.645 790.16 832.445 780.92 836.045 772.28C839.645 763.4 844.445 755.72 850.445 749.24C856.685 742.76 863.885 737.72 872.045 734.12C880.205 730.28 888.965 728.36 898.325 728.36ZM898.325 858.68C903.365 858.68 908.045 857.12 912.365 854C916.685 850.88 920.405 846.68 923.525 841.4C926.885 836.12 929.405 830 931.085 823.04C933.005 815.84 933.965 808.16 933.965 800C933.965 792.08 933.005 784.52 931.085 777.32C929.405 770.12 926.885 763.88 923.525 758.6C920.405 753.32 916.685 749.12 912.365 746C908.045 742.88 903.365 741.32 898.325 741.32C893.285 741.32 888.605 742.88 884.285 746C879.965 749.12 876.125 753.32 872.765 758.6C869.645 763.88 867.125 770.12 865.205 777.32C863.525 784.52 862.685 792.08 862.685 800C862.685 808.16 863.525 815.84 865.205 823.04C867.125 830 869.645 836.12 872.765 841.4C876.125 846.68 879.965 850.88 884.285 854C888.605 857.12 893.285 858.68 898.325 858.68ZM1070.41 830.24C1071.13 830.24 1072.57 830.96 1074.73 832.4C1077.13 833.6 1077.97 836.48 1077.25 841.04L1076.17 847.16L1071.13 872H991.211C987.131 872 984.251 871.16 982.571 869.48C981.131 867.8 980.531 865.76 980.771 863.36C981.011 860.96 982.091 858.68 984.011 856.52C986.171 854.36 988.451 852.2 990.851 850.04C995.171 845.96 999.251 842.12 1003.09 838.52C1006.45 835.4 1009.69 832.4 1012.81 829.52C1015.93 826.64 1018.09 824.6 1019.29 823.4C1026.01 817.16 1031.29 811.52 1035.13 806.48C1039.21 801.44 1042.21 796.76 1044.13 792.44C1046.29 787.88 1047.37 783.56 1047.37 779.48C1047.61 775.16 1047.25 770.48 1046.29 765.44C1044.85 758.48 1042.45 752.84 1039.09 748.52C1035.73 743.96 1032.01 741.68 1027.93 741.68C1022.41 741.68 1017.73 745.4 1013.89 752.84C1010.29 760.04 1008.49 769.04 1008.49 779.84C1008.49 785.36 1009.09 790.64 1010.29 795.68C1011.49 800.48 1013.05 804.68 1014.97 808.28C1004.65 806.12 996.371 801.32 990.131 793.88C983.891 786.44 980.771 778.16 980.771 769.04C980.771 763.28 982.091 758 984.731 753.2C987.371 748.16 990.851 743.84 995.171 740.24C999.491 736.64 1004.29 733.76 1009.57 731.6C1015.09 729.44 1020.73 728.36 1026.49 728.36H1029.01C1032.61 728.36 1037.05 728.96 1042.33 730.16C1047.61 731.36 1052.53 733.76 1057.09 737.36C1061.89 740.96 1065.97 746 1069.33 752.48C1072.69 758.72 1074.37 767 1074.37 777.32C1074.37 786.44 1071.73 794.84 1066.45 802.52C1061.41 810.2 1054.93 817.88 1047.01 825.56C1044.61 827.72 1042.09 830.12 1039.45 832.76C1036.81 835.16 1034.29 837.44 1031.89 839.6C1029.73 841.76 1027.93 843.56 1026.49 845C1025.05 846.44 1024.33 847.16 1024.33 847.16H1044.49C1049.29 847.16 1053.37 846.32 1056.73 844.64C1060.09 842.72 1062.73 840.68 1064.65 838.52C1067.05 836.12 1068.97 833.36 1070.41 830.24ZM1164.58 792.8C1174.42 793.28 1183.54 795.56 1191.94 799.64C1200.58 803.48 1208.02 808.76 1214.26 815.48C1220.74 821.96 1225.78 829.64 1229.38 838.52C1233.22 847.16 1235.14 856.4 1235.14 866.24C1235.14 876.32 1233.22 885.8 1229.38 894.68C1225.54 903.56 1220.26 911.36 1213.54 918.08C1206.82 924.8 1199.02 930.08 1190.14 933.92C1181.26 937.76 1171.78 939.68 1161.7 939.68C1148.98 939.68 1137.34 936.8 1126.78 931.04C1116.22 925.28 1107.7 917.48 1101.22 907.64C1094.98 898.52 1091.86 888.44 1091.86 877.4C1091.86 864.44 1095.94 853.04 1104.1 843.2C1112.5 833.36 1123.42 827.48 1136.86 825.56C1129.9 834.2 1125.22 842.36 1122.82 850.04C1120.66 857.72 1119.58 865.52 1119.58 873.44C1119.58 876.32 1119.82 879.56 1120.3 883.16C1121.02 886.76 1121.98 890.48 1123.18 894.32C1124.62 898.16 1126.42 901.88 1128.58 905.48C1130.98 909.08 1133.86 912.2 1137.22 914.84C1144.66 920.84 1152.82 923.84 1161.7 923.84C1168.18 923.84 1173.94 922.28 1178.98 919.16C1184.02 916.04 1188.22 911.72 1191.58 906.2C1195.18 900.92 1197.82 894.56 1199.5 887.12C1201.42 879.92 1202.38 872.24 1202.38 864.08C1202.38 855.92 1201.42 848.24 1199.5 841.04C1197.82 833.84 1195.18 827.6 1191.58 822.32C1188.22 816.8 1184.02 812.48 1178.98 809.36C1173.94 806.24 1168.18 804.68 1161.7 804.68C1155.46 804.68 1148.98 806.24 1142.26 809.36C1142.02 809.6 1140.7 810.44 1138.3 811.88C1135.9 813.32 1134.58 814.04 1134.34 814.04L1114.54 809.36L1129.3 746.36L1133.62 728.36H1176.82C1181.62 728.36 1185.7 727.52 1189.06 725.84C1192.42 723.92 1195.06 721.88 1196.98 719.72C1199.38 717.32 1201.3 714.56 1202.74 711.44C1203.46 711.44 1204.9 712.16 1207.06 713.6C1209.46 714.8 1210.42 717.68 1209.94 722.24L1203.82 753.2H1148.74L1138.66 795.32C1142.74 794.36 1146.94 793.64 1151.26 793.16C1155.82 792.68 1160.26 792.56 1164.58 792.8Z" fill="#1E1E1E"/>
<defs>
<radialGradient id="paint0_radial_14_107" cx="0" cy="0" r="1" gradientUnits="userSpaceOnUse" gradientTransform="translate(1258.09 149.105) rotate(180) scale(196.47 196.47)">
<stop stop-color="white"/>
<stop offset="0.5" stop-color="#EC1C24"/>
<stop offset="1" stop-color="#802326"/>
</radialGradient>
<radialGradient id="paint1_radial_14_107" cx="0" cy="0" r="1" gradientUnits="userSpaceOnUse" gradientTransform="translate(1458.13 224.99) rotate(180) scale(130.02 130.02)">
<stop stop-color="white"/>
<stop offset="0.5" stop-color="#EC1C24"/>
<stop offset="1" stop-color="#802326"/>
</radialGradient>
<radialGradient id="paint2_radial_14_107" cx="0" cy="0" r="1" gradientUnits="userSpaceOnUse" gradientTransform="translate(1408.99 255.695) rotate(180) scale(87.105)">
<stop stop-color="white"/>
<stop offset="0.5" stop-color="#EC1C24"/>
<stop offset="1" stop-color="#802326"/>
</radialGradient>
<radialGradient id="paint3_radial_14_107" cx="0" cy="0" r="1" gradientUnits="userSpaceOnUse" gradientTransform="translate(1243.19 88.13) rotate(180) scale(133.26 133.26)">
<stop stop-color="white"/>
<stop offset="0.5" stop-color="#D44B9A"/>
<stop offset="1" stop-color="#664198"/>
</radialGradient>
<radialGradient id="paint4_radial_14_107" cx="0" cy="0" r="1" gradientUnits="userSpaceOnUse" gradientTransform="translate(1462.08 118.4) rotate(180) scale(193.455 193.455)">
<stop stop-color="white"/>
<stop offset="0.5" stop-color="#D44B9A"/>
<stop offset="1" stop-color="#664198"/>
</radialGradient>
<radialGradient id="paint5_radial_14_107" cx="0" cy="0" r="1" gradientUnits="userSpaceOnUse" gradientTransform="translate(1458.13 141.635) rotate(180) scale(159.239 159.24)">
<stop stop-color="white"/>
<stop offset="0.5" stop-color="#D44B9A"/>
<stop offset="1" stop-color="#664198"/>
</radialGradient>
<radialGradient id="paint6_radial_14_107" cx="0" cy="0" r="1" gradientUnits="userSpaceOnUse" gradientTransform="translate(249.36 126.005) scale(287.67 287.67)">
<stop stop-color="white"/>
<stop offset="0.5" stop-color="#FF9D23"/>
<stop offset="1" stop-color="#F93827"/>
</radialGradient>
<radialGradient id="paint7_radial_14_107" cx="0" cy="0" r="1" gradientUnits="userSpaceOnUse" gradientTransform="translate(-43.515 237.11) scale(190.365 190.365)">
<stop stop-color="white"/>
<stop offset="0.5" stop-color="#EC1C24"/>
<stop offset="1" stop-color="#802326"/>
</radialGradient>
<radialGradient id="paint8_radial_14_107" cx="0" cy="0" r="1" gradientUnits="userSpaceOnUse" gradientTransform="translate(28.41 282.08) scale(127.545 127.545)">
<stop stop-color="white"/>
<stop offset="0.5" stop-color="#EC1C24"/>
<stop offset="1" stop-color="#802326"/>
</radialGradient>
<radialGradient id="paint9_radial_14_107" cx="0" cy="0" r="1" gradientUnits="userSpaceOnUse" gradientTransform="translate(271.2 36.725) scale(195.12 195.12)">
<stop stop-color="white"/>
<stop offset="0.5" stop-color="#D44B9A"/>
<stop offset="1" stop-color="#664198"/>
</radialGradient>
<radialGradient id="paint10_radial_14_107" cx="0" cy="0" r="1" gradientUnits="userSpaceOnUse" gradientTransform="translate(-49.305 81.035) scale(283.26 283.26)">
<stop stop-color="white"/>
<stop offset="0.5" stop-color="#D44B9A"/>
<stop offset="1" stop-color="#664198"/>
</radialGradient>
<radialGradient id="paint11_radial_14_107" cx="0" cy="0" r="1" gradientUnits="userSpaceOnUse" gradientTransform="translate(-43.5301 115.085) scale(233.175 233.175)">
<stop stop-color="white"/>
<stop offset="0.5" stop-color="#D44B9A"/>
<stop offset="1" stop-color="#664198"/>
</radialGradient>
<clipPath id="clip0_14_107">
<rect width="1655.33" height="999.09" fill="white" transform="translate(0 0.485001)"/>
</clipPath>
</defs>
</svg>
