<svg width="817" height="817" viewBox="0 0 817 817" fill="none" xmlns="http://www.w3.org/2000/svg">
<g clip-path="url(#clip0_502_3971)">
<path d="M370.816 1.69621C454.448 -5.99979 540.416 12.5442 613.008 55.0562C697.167 103.888 761.096 181.198 793.256 273.029C825.416 364.86 823.689 465.163 788.385 555.832C753.081 646.501 686.527 721.563 600.736 767.468C514.946 813.372 415.571 827.096 320.55 806.161C225.529 785.225 141.122 731.011 82.5661 653.304C24.0099 575.596 -4.83798 479.516 1.22988 382.405C7.29774 285.295 47.8815 193.553 115.655 123.739C183.429 53.9255 273.928 10.6401 370.816 1.69621ZM309.856 206.096C309.856 209.702 309.856 213.307 309.856 216.912C238.816 216.912 167.787 216.912 96.7682 216.912C96.7682 219.248 96.7682 221.584 96.7682 223.936C167.798 223.936 238.822 223.936 309.84 223.936C309.84 227.595 309.84 231.259 309.84 234.928H316.736C316.736 225.328 316.736 215.728 316.736 206.128L309.856 206.096ZM333.648 206.096C333.648 215.696 333.648 225.296 333.648 234.896H340.496C340.496 225.296 340.496 215.696 340.496 206.096H333.648ZM404.688 206.096C404.688 215.696 404.688 225.296 404.688 234.896H411.584C411.584 225.296 411.584 215.696 411.584 206.096H404.688ZM428.288 206.096C428.288 215.696 428.288 225.296 428.288 234.896H435.168C435.168 225.296 435.168 215.696 435.168 206.096H428.288ZM452.08 206.096C452.08 215.696 452.08 225.296 452.08 234.896H458.944C458.944 225.296 458.944 215.696 458.944 206.096H452.08ZM357.248 206.096C357.248 215.696 357.248 225.296 357.248 234.896H364.128C364.128 225.296 364.128 215.696 364.128 206.096H357.248ZM380.832 206.096C380.832 215.696 380.832 225.296 380.832 234.896H387.952C387.952 225.296 387.952 215.696 387.952 206.096H380.832ZM475.696 206.096C475.696 215.696 475.696 225.296 475.696 234.896H482.56C482.56 225.296 482.56 215.696 482.56 206.096H475.696ZM499.264 206.096C499.264 215.696 499.264 225.296 499.264 234.896H506.384C506.384 231.238 506.384 227.574 506.384 223.904C577.403 223.904 648.438 223.904 719.488 223.904C719.488 222.208 719.488 218.784 719.488 217.088C648.448 217.088 577.408 217.088 506.368 217.088C506.368 213.456 506.368 209.824 506.368 206.208L499.264 206.096ZM444.032 247.152C443.36 261.781 443.44 276.435 444.272 291.056C441.808 292.48 439.328 293.856 436.832 295.216C457.2 307.232 477.808 318.864 498.208 330.864C498.208 307.2 498.208 283.552 498.208 259.904C498.208 255.6 498.112 251.296 497.888 247.008C479.968 246.528 461.968 246.4 444.032 247.168V247.152ZM519.232 260.032V319.152C578.72 319.238 638.203 319.238 697.68 319.152C697.68 299.44 697.68 279.707 697.68 259.952C638.192 259.995 578.704 260.027 519.216 260.048L519.232 260.032ZM147.36 295.472C124.288 318.304 110.56 350.352 110.768 382.896C109.92 424.96 132.768 466.352 168.368 488.608C211.12 515.68 270.656 513.184 310.384 481.568C310.72 489.568 310.592 497.68 311.056 505.728C319.984 505.936 329.04 506.912 337.856 505.024C358.144 493.152 378.56 481.504 398.896 469.712C378.672 457.424 357.92 446.032 337.568 433.936C335.136 442.176 337.28 450.928 336.16 459.376C327.888 460.688 319.52 459.776 311.216 460.48C301.456 450.608 291.648 440.8 282.048 430.864C269.297 443.419 252.103 450.429 234.208 450.368C225.396 450.341 216.676 448.57 208.552 445.156C200.428 441.742 193.061 436.754 186.874 430.478C180.688 424.202 175.805 416.764 172.508 408.592C169.211 400.42 167.565 391.676 167.664 382.864C168.085 365.102 175.327 348.183 187.888 335.616C203.712 319.84 227.664 313.904 249.296 318.416C261.408 321.536 273.04 327.184 281.728 336.336C295.424 323.264 308.624 309.664 322.048 296.336C299.504 273.456 267.648 259.696 235.424 260.064C219.129 259.818 202.948 262.823 187.827 268.902C172.707 274.982 158.95 284.014 147.36 295.472ZM334.416 317.104C334.96 329.2 341.664 340.016 350.016 348.4C363.104 361.456 378.816 371.376 394.688 380.736C412.8 391.68 431.104 402.56 447.488 416.064C459.424 426.064 470.592 438.864 473.248 454.704C475.161 463.029 475.285 471.664 473.614 480.041C471.942 488.417 468.513 496.343 463.552 503.296L463.696 505.504C485.328 492.48 499.856 467.568 498.144 442.064C497.776 425.04 487.872 410.064 475.872 398.656C444.672 367.44 401.12 353.136 368.816 323.296C362.208 316.896 356.112 309.76 352.4 301.264C346.88 288.096 347.392 273.232 351.328 259.664C336.688 274.56 332.688 296.96 334.416 317.104ZM519.216 349.568C519.216 369.195 519.216 388.822 519.216 408.448C561.243 408.448 603.28 408.448 645.328 408.448V349.568H519.216ZM519.216 438.32C519.216 458.139 519.216 477.963 519.216 497.792C578.693 497.792 638.171 497.792 697.648 497.792C697.648 477.974 697.648 458.15 697.648 438.32C638.181 438.288 578.704 438.288 519.216 438.32ZM495.328 568.464C495.328 574.752 494.88 583.888 502.032 586.592C510.768 588.192 519.808 586.08 528.512 587.664C530.512 591.456 529.072 596.224 528.912 600.384C517.712 600.944 506.624 600.096 495.504 600.912C495.888 604 494.32 608.016 496.416 610.512C505.472 611.136 514.576 610.512 523.616 610.8C527.712 610.576 532.768 611.472 535.888 608.096C540.688 603.088 539.504 595.568 539.44 589.28C539.44 584.272 536.88 578.08 531.44 577.28C523.344 576.576 515.168 577.04 507.04 577.088C504.848 573.136 505.44 568.528 506.448 564.288C516.688 564.288 526.928 564.16 537.168 564.288C538.553 560.888 538.553 557.081 537.168 553.68C526.24 554.064 515.264 553.232 504.368 554.096C497.536 554.816 494.976 562.432 495.328 568.464ZM630.848 557.264C627.168 561.76 627.904 567.952 627.872 573.376C628 578.272 628.736 584.784 634.272 586.592C643.264 587.872 652.416 586.592 661.472 587.392C661.84 591.729 661.776 596.092 661.28 600.416C650.224 600.896 639.136 600.24 628.096 600.832C628.096 604.032 628.096 607.232 628.096 610.432C637.568 611.088 647.072 610.576 656.56 610.784C660.976 610.784 666.592 611.232 669.36 606.96C673.088 601.392 672 594.16 671.776 587.76C671.632 582.784 668.336 577.296 662.912 577.072C654.912 576.592 646.784 577.072 638.736 576.848C638.736 572.848 636.864 567.808 639.44 564.432C649.632 563.84 659.872 564.432 670.096 564.208C670.451 560.935 670.622 557.645 670.608 554.352C661.68 553.184 652.656 554.048 643.68 553.728C639.2 553.808 633.888 553.488 630.848 557.168V557.264ZM143.168 565.472C140.992 572.704 141.904 580.368 141.68 587.872C141.856 594.272 141.312 601.088 144.736 606.72C147.28 611.088 152.576 612.816 157.376 612.848C166.704 612.976 176.016 612.928 185.328 612.848C185.536 609.536 185.568 606.24 185.488 602.944C176.032 602.336 166.56 603.056 157.12 602.56C155.824 602.449 154.615 601.861 153.728 600.909C152.841 599.957 152.339 598.709 152.32 597.408C151.842 589.951 151.74 582.475 152.016 575.008C152.016 571.728 152.352 567.008 156.432 566.432C165.76 565.6 175.168 566.672 184.496 565.984C187.072 563.52 185.216 559.168 185.12 555.936C175.264 556.176 165.376 555.68 155.52 556.192C152.761 556.246 150.088 557.16 147.874 558.806C145.659 560.453 144.014 562.75 143.168 565.376V565.472ZM215.616 556.736C213.21 557.525 211.071 558.97 209.443 560.91C207.814 562.849 206.76 565.206 206.4 567.712C205.024 575.392 205.744 583.248 205.584 591.008C205.728 597.408 205.76 604.8 210.864 609.408C216.464 614.048 224.16 612.608 230.864 612.848C237.568 612.592 245.264 614.016 250.896 609.44C256.4 604.368 256 596.192 256.176 589.328C255.92 581.328 256.928 573.056 254.688 565.232C253.008 559.2 246.688 555.728 240.624 555.984C232.304 555.984 223.824 555.088 215.616 556.64V556.736ZM278.016 563.84C278.016 580.08 277.824 596.32 278.144 612.56C281.216 612.368 285.04 613.904 287.616 611.888C288.32 597.664 287.408 583.408 288.08 569.2C293.632 580.048 297.072 591.856 302.304 602.8C304.432 607.728 310.432 606.112 314.656 606.144C316.384 603.923 317.794 601.473 318.848 598.864C322.832 588.56 327.248 578.432 331.088 568.08C332.08 582.944 330.64 597.888 331.92 612.736H340.912C341.68 599.072 341.04 585.36 341.28 571.68C341.136 567.168 341.76 562.464 340.304 558.128C336.64 554.064 330.4 556.528 325.616 556.176C318.88 567.84 316.176 581.456 309.44 593.088C304.544 581.968 300.432 570.512 295.792 559.296C293.936 554.336 287.6 556.096 283.536 555.952C279.232 555.376 277.696 560.256 277.936 563.744L278.016 563.84ZM361.68 556.56C361.68 559.616 361.792 562.672 361.856 565.744C373.232 566.72 384.704 565.456 396.08 566.416C400.112 569.152 400.032 579.12 393.936 578.944C383.248 579.28 372.544 578.624 361.856 579.28C362.112 590.48 360.88 601.808 362.576 612.88C365.776 612.88 368.976 612.672 372.176 612.336C372.176 604.576 372.08 596.816 372.304 589.072C381.152 588.896 390.032 589.424 398.88 588.752C404.32 588.416 407.76 583.168 408.368 578.192C409.104 571.888 409.424 564.528 405.04 559.392C400.592 554.592 393.536 556.112 387.728 555.84C378.96 556.144 370.208 555.072 361.6 556.464L361.68 556.56ZM428.048 556.032C427.6 569.28 427.696 582.56 427.952 595.824C427.952 602.784 431.488 610.848 439.024 612.256C447.024 613.2 455.024 612.736 463.104 612.64C465.871 612.643 468.569 611.779 470.819 610.169C473.069 608.559 474.758 606.284 475.648 603.664C478.064 595.376 477.456 586.624 477.52 578.064C477.392 570.688 478 563.264 476.912 555.936C473.712 555.936 470.485 555.936 467.232 555.936C466.512 569.84 467.712 583.808 466.608 597.664C466.608 601.216 462.784 602.56 459.808 602.464C453.941 602.691 448.066 602.601 442.208 602.192C440.936 601.622 439.866 600.678 439.14 599.487C438.415 598.296 438.067 596.913 438.144 595.52C437.632 582.288 438.4 569.04 437.744 555.824C434.437 555.824 431.179 555.862 427.968 555.936L428.048 556.032ZM560.48 556.032C565.52 567.952 572.832 578.784 578.944 590.192C583.744 596.736 580.816 605.152 581.952 612.592C585.152 612.592 588.432 612.592 591.68 612.512C592.032 606.816 591.6 601.088 592.064 595.392C598.656 582 607.344 569.664 613.488 556.064C609.92 556.064 606.176 555.216 602.72 556.32C597.072 565.552 592.4 575.376 586.72 584.64C581.696 574.944 576.448 565.44 571.136 555.84C567.542 555.808 563.979 555.862 560.448 556L560.48 556.032Z" fill="#07080A"/>
<path d="M220.289 566.256C227.3 565.792 234.334 565.792 241.345 566.256C245.569 566.64 245.857 571.6 245.905 574.896C245.777 582.896 246.593 590.896 245.281 598.736C244.881 601.648 241.361 602.432 238.881 602.464C232.561 602.464 226.193 602.8 219.889 602.208C215.569 601.04 215.873 595.984 215.713 592.448C215.713 585.536 215.377 578.608 216.017 571.728C215.937 570.452 216.328 569.19 217.115 568.182C217.902 567.173 219.031 566.488 220.289 566.256Z" fill="#07080A"/>
<path d="M309.858 206.096H316.722C316.722 215.696 316.722 225.296 316.722 234.896H309.826C309.826 231.226 309.826 227.562 309.826 223.904C238.807 223.904 167.783 223.904 96.7539 223.904C96.7539 221.552 96.7539 219.216 96.7539 216.88C167.783 216.88 238.813 216.88 309.842 216.88C309.842 213.285 309.847 209.69 309.858 206.096Z" fill="#FEFEFE"/>
<path d="M333.649 206.096H340.529C340.529 215.696 340.529 225.296 340.529 234.896H333.681C333.617 225.296 333.649 215.696 333.649 206.096Z" fill="#FEFEFE"/>
<path d="M404.689 206.145H411.537C411.537 215.745 411.537 225.345 411.537 234.945H404.641C404.689 225.329 404.641 215.729 404.689 206.145Z" fill="#FEFEFE"/>
<path d="M428.288 206.096H435.136C435.136 215.696 435.136 225.296 435.136 234.896H428.256C428.267 225.296 428.277 215.696 428.288 206.096Z" fill="#FEFEFE"/>
<path d="M452.082 206.096H458.978C458.978 215.696 458.978 225.296 458.978 234.896H452.114C452.066 225.296 452.098 215.696 452.082 206.096Z" fill="#FEFEFE"/>
<path d="M357.248 206.113H364.128C364.128 215.713 364.128 225.313 364.128 234.913H357.248C357.248 225.329 357.248 215.713 357.248 206.113Z" fill="#FEFEFE"/>
<path d="M380.832 206.08L387.968 206.16C387.968 215.76 387.968 225.36 387.968 234.96H380.848C380.816 225.296 380.88 215.696 380.832 206.08Z" fill="#FEFEFE"/>
<path d="M475.646 206.113H482.51C482.51 215.713 482.51 225.313 482.51 234.913H475.646C475.646 225.329 475.646 215.713 475.646 206.113Z" fill="#FEFEFE"/>
<path d="M499.264 206.113H506.384C506.384 209.729 506.384 213.361 506.384 216.993C577.424 217.079 648.464 217.079 719.504 216.993C719.504 218.689 719.504 222.113 719.504 223.809C648.464 223.873 577.429 223.873 506.4 223.809C506.4 227.468 506.4 231.132 506.4 234.801H499.28C499.248 225.297 499.296 215.697 499.264 206.113Z" fill="#FEFEFE"/>
<path d="M334.417 317.104C332.689 296.96 336.689 274.56 351.329 259.696C347.393 273.232 346.881 288.096 352.401 301.296C356.113 309.792 362.209 316.96 368.817 323.328C401.121 353.168 444.673 367.472 475.873 398.688C487.873 410.048 497.777 425.072 498.145 442.096C499.857 467.6 485.345 492.512 463.697 505.536L463.553 503.328C468.514 496.375 471.943 488.449 473.614 480.073C475.286 471.696 475.161 463.061 473.249 454.736C470.593 438.864 459.425 426.112 447.473 416.096C431.105 402.592 412.801 391.712 394.673 380.768C378.849 371.408 363.089 361.488 350.001 348.432C341.665 340.016 334.961 329.2 334.417 317.104Z" fill="#FEFEFE"/>
<path d="M444.032 247.169C461.968 246.401 479.968 246.529 497.92 247.025C498.144 251.313 498.272 255.617 498.24 259.921C480.192 270.209 462.272 280.721 444.272 291.073C443.44 276.452 443.36 261.798 444.032 247.169Z" fill="black"/>
<path d="M336.161 459.377C337.281 450.929 335.137 442.177 337.569 433.937C338.097 457.633 337.697 481.329 337.857 505.025C329.041 506.913 319.985 505.937 311.057 505.729C310.593 497.729 310.721 489.617 310.385 481.569C314.442 478.361 318.31 474.921 321.969 471.265C318.342 467.713 314.758 464.118 311.217 460.481C319.521 459.777 327.889 460.689 336.161 459.377Z" fill="black"/>
<path d="M444.271 291.073C462.271 280.689 480.191 270.273 498.239 259.921C498.159 283.569 498.239 307.217 498.239 330.881C477.839 318.881 457.231 307.249 436.863 295.233C439.327 293.873 441.807 292.497 444.271 291.073Z" fill="white"/>
<path d="M337.568 433.937C357.92 446.033 378.672 457.425 398.896 469.713C378.56 481.505 358.144 493.153 337.856 505.025C337.696 481.329 338.048 457.633 337.568 433.937Z" fill="white"/>
<path d="M519.217 260.049C578.705 260.049 638.183 260.049 697.649 260.049C697.649 279.761 697.649 299.494 697.649 319.249C638.161 319.249 578.679 319.249 519.201 319.249L519.217 260.049Z" fill="#FD8E0F"/>
<path d="M235.426 259.969C267.65 259.601 299.426 273.361 322.05 296.241C308.626 309.601 295.426 323.201 281.73 336.241C273.042 327.089 261.41 321.441 249.298 318.321C244.829 316.775 240.272 315.498 235.65 314.497C234.866 296.353 235.426 278.161 235.426 259.969Z" fill="#FD8E0F"/>
<path d="M630.849 557.169C633.889 553.489 639.201 553.809 643.521 553.713C652.497 554.033 661.521 553.169 670.449 554.337C670.462 557.629 670.291 560.919 669.937 564.193C659.713 564.369 649.473 563.825 639.281 564.417C636.705 567.793 638.513 572.833 638.577 576.833C646.577 577.041 654.705 576.577 662.753 577.057C668.177 577.281 671.473 582.769 671.617 587.745C671.841 594.145 672.929 601.313 669.201 606.945C666.449 611.217 660.833 610.689 656.401 610.769C646.913 610.561 637.409 611.073 627.937 610.417C627.937 607.217 627.937 604.017 627.937 600.817C638.977 600.225 650.065 600.817 661.121 600.401C661.617 596.076 661.681 591.714 661.313 587.377C652.273 586.577 643.121 587.857 634.113 586.577C628.641 584.769 627.905 578.257 627.713 573.361C627.905 567.857 627.169 561.665 630.849 557.169Z" fill="#FD8E0F"/>
<path d="M143.168 565.376C143.979 562.729 145.599 560.403 147.8 558.724C150.001 557.045 152.673 556.098 155.44 556.016C165.296 555.504 175.184 556.016 185.04 555.76C185.136 558.96 186.992 563.344 184.416 565.808C175.088 566.496 165.68 565.424 156.352 566.256C152.272 566.864 151.984 571.552 151.936 574.832C151.66 582.299 151.761 589.775 152.24 597.232C152.259 598.533 152.76 599.78 153.647 600.732C154.534 601.684 155.743 602.273 157.04 602.384C166.48 602.88 175.952 602.16 185.408 602.768C185.408 606.064 185.408 609.36 185.248 612.672C175.936 612.8 166.624 612.848 157.296 612.672C152.496 612.672 147.2 610.912 144.656 606.544C141.232 600.912 141.776 594.016 141.6 587.696C141.904 580.272 140.992 572.608 143.168 565.376Z" fill="#FD8E0F"/>
<path d="M147.359 295.473C158.933 284.005 172.676 274.959 187.786 268.863C202.895 262.768 219.068 259.744 235.359 259.969C235.359 278.161 234.799 296.353 235.583 314.529C240.205 315.529 244.763 316.806 249.231 318.353C227.599 313.841 203.647 319.777 187.823 335.553C174.095 322.481 161.039 308.657 147.359 295.473Z" fill="#FEA209"/>
<path d="M519.217 349.569H645.329V408.465C603.281 408.465 561.243 408.465 519.217 408.465C519.238 388.828 519.238 369.196 519.217 349.569Z" fill="#FEA209"/>
<path d="M215.616 556.641C223.824 555.041 232.304 555.985 240.624 555.889C246.624 555.633 253.008 559.089 254.688 565.137C256.928 572.961 255.92 581.217 256.176 589.233C256 596.097 256.4 604.273 250.896 609.345C245.232 613.921 237.568 612.545 230.864 612.753C224.16 612.481 216.464 613.953 210.864 609.313C205.76 604.705 205.728 597.249 205.584 590.913C205.744 583.153 205.024 575.297 206.4 567.617C206.76 565.111 207.814 562.755 209.443 560.815C211.071 558.876 213.209 557.43 215.616 556.641ZM220.288 566.241C219.036 566.48 217.914 567.168 217.134 568.176C216.353 569.184 215.967 570.441 216.048 571.713C215.408 578.593 215.808 585.521 215.744 592.433C215.904 595.969 215.6 601.025 219.92 602.193C226.224 602.785 232.592 602.481 238.912 602.449C241.36 602.449 244.88 601.633 245.312 598.721C246.624 590.865 245.808 582.817 245.936 574.881C245.936 571.585 245.6 566.625 241.376 566.241C234.354 565.781 227.309 565.787 220.288 566.257V566.241Z" fill="#FEA209"/>
<path d="M560.447 556.001C563.999 555.862 567.562 555.809 571.135 555.841C576.447 565.441 581.695 574.945 586.719 584.641C592.367 575.377 597.039 565.553 602.719 556.321C606.175 555.217 609.919 556.001 613.487 556.065C607.343 569.665 598.655 582.001 592.063 595.393C591.599 601.089 592.063 606.817 591.679 612.513C588.479 612.609 585.183 612.625 581.951 612.593C580.815 605.121 583.711 596.705 578.943 590.193C572.751 578.753 565.439 567.921 560.447 556.001Z" fill="#FEA209"/>
<path d="M110.848 382.865C110.56 350.321 124.368 318.273 147.44 295.441C161.12 308.625 174.176 322.449 187.968 335.521C175.355 348.099 168.082 365.058 167.664 382.865C148.688 382.865 129.728 382.673 110.848 382.865Z" fill="#FFB506"/>
<path d="M495.328 568.465C494.976 562.513 497.537 554.897 504.369 554.193C515.265 553.329 526.241 554.193 537.169 553.777C538.553 557.178 538.553 560.985 537.169 564.385C526.929 564.193 516.689 564.289 506.449 564.385C505.441 568.577 504.849 573.185 507.041 577.185C515.169 577.185 523.345 576.673 531.441 577.377C536.961 578.225 539.441 584.369 539.441 589.377C539.441 595.665 540.657 603.185 535.889 608.193C532.769 611.569 527.713 610.673 523.617 610.897C514.529 610.641 505.425 611.233 496.417 610.609C494.321 608.129 495.889 604.113 495.505 601.009C506.625 600.193 517.777 601.009 528.913 600.481C529.073 596.321 530.513 591.553 528.513 587.761C519.809 586.161 510.768 588.225 502.032 586.689C494.848 583.809 495.296 574.673 495.328 568.465Z" fill="#FFB506"/>
<path d="M277.936 563.745C277.696 560.257 279.232 555.377 283.568 555.873C287.632 556.033 293.968 554.273 295.824 559.217C300.464 570.417 304.576 581.889 309.472 593.009C316.208 581.377 318.912 567.761 325.648 556.097C330.448 556.385 336.672 553.985 340.336 558.049C341.792 562.385 341.168 567.089 341.312 571.601C341.072 585.281 341.712 598.993 340.944 612.657H331.952C330.672 597.809 332.112 582.865 331.12 568.001C327.28 578.353 322.864 588.481 318.88 598.785C317.79 601.395 316.342 603.84 314.576 606.049C310.352 606.049 304.352 607.649 302.224 602.705C296.992 591.697 293.552 579.889 288 569.105C287.328 583.313 288.24 597.569 287.536 611.793C284.96 613.809 281.136 612.273 278.064 612.465C277.744 596.225 277.936 579.985 277.936 563.745Z" fill="#FFB506"/>
<path d="M111.027 383.104C129.987 382.88 148.947 383.104 167.923 383.008C167.815 391.818 169.453 400.562 172.741 408.737C176.03 416.911 180.904 424.353 187.082 430.635C193.261 436.916 200.622 441.912 208.741 445.334C216.86 448.757 225.576 450.538 234.387 450.576C252.277 450.645 269.471 443.647 282.227 431.104C291.907 441.04 301.715 450.848 311.475 460.72C315.017 464.346 318.601 467.941 322.227 471.504C318.569 475.16 314.701 478.6 310.643 481.808C270.915 513.424 211.443 515.92 168.627 488.848C132.947 466.592 110.099 425.2 111.027 383.104Z" fill="#FFC900"/>
<path d="M519.217 438.321C578.705 438.321 638.187 438.321 697.665 438.321C697.665 458.14 697.665 477.964 697.665 497.793C638.198 497.793 578.721 497.793 519.233 497.793C519.222 477.975 519.217 458.151 519.217 438.321Z" fill="#FFC900"/>
<path d="M361.601 556.466C370.209 555.074 378.961 556.146 387.633 555.794C393.441 556.066 400.433 554.562 404.945 559.346C409.329 564.482 409.009 571.842 408.273 578.146C407.665 583.122 404.225 588.37 398.785 588.706C389.937 589.378 381.057 588.85 372.209 589.026C371.985 596.77 372.097 604.53 372.081 612.29C368.881 612.626 365.681 612.77 362.481 612.834C360.785 601.634 362.017 590.434 361.761 579.234C372.449 578.578 383.153 579.234 393.841 578.898C399.937 579.074 400.017 569.106 395.985 566.37C384.609 565.41 373.137 566.674 361.761 565.698C361.713 562.578 361.665 559.522 361.601 556.466Z" fill="#F8C958"/>
<path d="M427.968 555.936C431.168 555.862 434.368 555.824 437.568 555.824C438.224 569.04 437.456 582.288 437.968 595.52C437.891 596.913 438.239 598.296 438.964 599.487C439.69 600.678 440.759 601.622 442.032 602.192C447.889 602.601 453.765 602.691 459.632 602.464C462.608 602.576 466.448 601.232 466.432 597.664C467.536 583.808 466.336 569.84 467.056 555.936C470.256 555.862 473.483 555.862 476.736 555.936C477.824 563.264 477.216 570.688 477.344 578.064C477.344 586.592 477.888 595.344 475.472 603.664C474.575 606.283 472.879 608.555 470.623 610.159C468.367 611.764 465.664 612.62 462.896 612.608C454.896 612.704 446.784 613.168 438.816 612.224C431.28 610.816 427.744 602.752 427.744 595.792C427.648 582.464 427.52 569.184 427.968 555.936Z" fill="#F8C958"/>
</g>
<defs>
<clipPath id="clip0_502_3971">
<rect width="816.896" height="817.008" fill="white"/>
</clipPath>
</defs>
</svg>
